<?xml version="1.0" encoding="UTF-8" standalone="no"?>
<!-- Created with Inkscape (http://www.inkscape.org/) -->

<svg
   xmlns:dc="http://purl.org/dc/elements/1.1/"
   xmlns:cc="http://creativecommons.org/ns#"
   xmlns:rdf="http://www.w3.org/1999/02/22-rdf-syntax-ns#"
   xmlns:svg="http://www.w3.org/2000/svg"
   xmlns="http://www.w3.org/2000/svg"
   xmlns:sodipodi="http://sodipodi.sourceforge.net/DTD/sodipodi-0.dtd"
   xmlns:inkscape="http://www.inkscape.org/namespaces/inkscape"
   width="189.70625mm"
   height="164.30624mm"
   viewBox="0 0 189.70625 164.30624"
   version="1.1"
   id="svg8"
   inkscape:version="0.92.3 (2405546, 2018-03-11)"
   sodipodi:docname="trajProgNewImpact.svg">
  <defs
     id="defs2" />
  <sodipodi:namedview
     id="base"
     pagecolor="#ffffff"
     bordercolor="#666666"
     borderopacity="1.0"
     inkscape:pageopacity="0.0"
     inkscape:pageshadow="2"
     inkscape:zoom="0.86795497"
     inkscape:cx="365.41279"
     inkscape:cy="279.96523"
     inkscape:document-units="mm"
     inkscape:current-layer="layer1"
     showgrid="false"
     inkscape:window-width="1366"
     inkscape:window-height="706"
     inkscape:window-x="-8"
     inkscape:window-y="-8"
     inkscape:window-maximized="1" />
  <metadata
     id="metadata5">
    <rdf:RDF>
      <cc:Work
         rdf:about="">
        <dc:format>image/svg+xml</dc:format>
        <dc:type
           rdf:resource="http://purl.org/dc/dcmitype/StillImage" />
        <dc:title />
      </cc:Work>
    </rdf:RDF>
  </metadata>
  <g
     inkscape:label="Layer 1"
     inkscape:groupmode="layer"
     id="layer1"
     transform="translate(-6.12738,-35.686158)">
    <g
       id="g21"
       transform="translate(-214.25163,8.3154762)">
      <path
         style="fill:#fdfdfd;stroke-width:0.26458332"
         d="M 220.37901,109.5238 V 27.370682 h 94.85312 94.85313 v 82.153118 82.15312 h -94.85313 -94.85312 z"
         id="path37"
         inkscape:connector-curvature="0" />
      <path
         style="fill:#96b0c6;stroke-width:0.26458332"
         d="m 240.75193,188.90648 v -0.65378 l 3.49396,-0.0738 3.49397,-0.0738 2.71161,-9.65729 c 1.49139,-5.31151 2.71707,-9.70137 2.72374,-9.75524 0.0182,-0.14732 -2.94279,0.15416 -3.62589,0.36916 -0.4358,0.13717 -0.59531,0.0812 -0.59531,-0.20895 0,-0.46096 1.81032,-0.98831 3.39276,-0.98831 h 1.04177 l 1.63971,-5.88698 c 2.52871,-9.07876 2.62987,-9.39182 3.09206,-9.56918 0.27347,-0.10494 0.95535,0.24171 1.88257,0.95705 0.79958,0.61687 4.38375,3.40684 7.96483,6.19992 3.58107,2.79308 6.61807,5.01218 6.7489,4.93133 0.1309,-0.0809 0.16304,-1.03205 0.0715,-2.11527 -0.12377,-1.46427 -0.0858,-1.94139 0.14837,-1.86335 0.51466,0.17156 0.77597,1.55026 0.61854,3.26355 l -0.14754,1.60561 6.21171,4.82215 c 3.41645,2.65218 6.27699,4.92775 6.35677,5.05683 0.0798,0.12908 0.0226,0.31038 -0.12709,0.40288 -0.14967,0.0925 -3.09841,-2.03569 -6.55275,-4.72933 -6.16876,-4.81028 -6.28769,-4.88735 -6.6775,-4.32685 -0.21828,0.31386 -0.65111,0.79301 -0.96184,1.06477 -0.32916,0.28788 -0.5128,0.69359 -0.43998,0.97205 0.1112,0.42521 -0.0162,0.46275 -1.15482,0.34034 -0.7039,-0.0757 -1.33121,-0.18307 -1.39402,-0.23864 -0.0628,-0.0556 0.28538,-0.51332 0.77377,-1.01721 0.71723,-0.74 0.96092,-0.85563 1.26732,-0.60134 0.30203,0.25067 0.45833,0.20902 0.76697,-0.20436 1.02658,-1.37496 1.3497,-1.02682 -6.98891,-7.52989 -4.32353,-3.37182 -7.89055,-6.03129 -7.9267,-5.90993 -0.38737,1.30041 -4.05012,14.59403 -4.05012,14.69955 0,0.0777 0.3432,0.28343 0.76267,0.45718 0.41946,0.17375 1.09728,0.66517 1.50626,1.09206 0.52225,0.54511 0.89757,0.72728 1.26083,0.61198 0.46138,-0.14643 0.49872,-0.0716 0.34582,0.69291 -0.0943,0.47139 -0.17141,1.08031 -0.17141,1.35316 0,0.67986 -0.24814,0.6158 -1.29267,-0.33375 -0.7073,-0.64299 -0.81865,-0.86489 -0.52917,-1.05456 0.28981,-0.18988 0.18199,-0.40889 -0.51456,-1.04528 -0.48466,-0.44279 -1.07044,-0.76843 -1.30173,-0.72363 -0.31185,0.0604 -1.09084,2.47461 -3.0143,9.34186 -1.42657,5.09323 -2.59697,9.34971 -2.60088,9.45885 -0.004,0.10914 8.50586,0.19844 18.9106,0.19844 h 18.91771 v 0.66146 0.66146 h -23.01875 -23.01875 z m 86.25416,-0.79901 v -0.65903 l 13.35752,-0.0686 13.35752,-0.0686 -4.82871,-8.11509 c -4.43563,-7.45449 -4.87146,-8.09236 -5.35387,-7.83594 -0.8882,0.47211 -1.92608,1.55515 -2.25783,2.35607 -0.31579,0.76239 -1.04546,1.06056 -1.04546,0.42721 0,-0.59175 1.32471,-2.30836 2.36027,-3.05852 l 1.00423,-0.72745 -4.29975,-7.23084 -4.29976,-7.23083 0.60564,-1.35793 c 0.33309,-0.74686 2.16964,-4.797 4.0812,-9.00031 1.91156,-4.20331 3.4329,-7.68505 3.38075,-7.7372 -0.23477,-0.23476 -2.81084,-0.58386 -3.32202,-0.45018 -0.42218,0.1104 -0.56889,0.0293 -0.56889,-0.31452 0,-0.40924 0.20831,-0.44712 1.78593,-0.32476 0.98227,0.0762 1.96454,0.20743 2.18282,0.29167 0.30516,0.11776 1.00547,-1.20523 3.03062,-5.72536 4.43399,-9.89665 4.47676,-9.98257 4.85348,-9.74882 0.26012,0.1614 -0.52664,2.12753 -3.24194,8.10166 -3.50449,7.7105 -3.57325,7.89706 -3.04632,8.26614 0.79422,0.55629 1.8283,1.72308 1.99678,2.25302 0.081,0.25466 0.39021,0.46302 0.68722,0.46302 0.44132,0 0.51021,0.11877 0.37694,0.64979 -0.24272,0.96704 -0.65732,1.99604 -0.80424,1.99604 -0.17368,0 -1.47129,-1.92097 -1.47129,-2.17808 0,-0.11174 0.18532,-0.20316 0.41183,-0.20316 0.35848,0 0.34991,-0.10611 -0.0661,-0.819 -0.26289,-0.45045 -0.80827,-1.05591 -1.21196,-1.34547 l -0.73397,-0.52647 -0.76103,1.6762 c -0.41857,0.92191 -2.1483,4.71229 -3.84384,8.42307 -1.69554,3.71078 -3.09543,6.92547 -3.11086,7.14375 -0.0269,0.38034 7.75376,13.57991 8.36038,14.18306 0.41809,0.41569 2.54309,0.14811 2.54309,-0.32023 0,-0.203 0.0659,-0.36908 0.14643,-0.36908 0.24124,0 1.97022,1.44024 1.97023,1.64121 0,0.18794 -1.71125,0.73583 -2.3068,0.73856 -0.17811,7.9e-4 -0.25426,-0.17616 -0.17013,-0.3954 0.11591,-0.30204 -0.0509,-0.39687 -0.69807,-0.39687 -0.67866,0 -0.81682,0.0874 -0.68423,0.43294 0.0914,0.23813 2.31977,4.04813 4.95198,8.46667 l 4.78584,8.03372 h 8.96696 8.96695 v 0.66146 0.66146 h -23.01875 -23.01875 z m -18.38854,-6.61367 c -1.45521,-0.2011 -3.59833,-0.55198 -4.7625,-0.77975 -2.58188,-0.50514 -2.51354,-0.50467 -2.51354,-0.0173 0,0.21828 -0.0675,0.39688 -0.15009,0.39688 -0.2247,0 -2.22088,-1.69348 -2.22639,-1.88879 -0.003,-0.0929 0.4204,-0.24875 0.94006,-0.34624 0.51966,-0.0975 1.11497,-0.24254 1.32292,-0.32233 0.25098,-0.0963 0.37808,0.0349 0.37808,0.39046 0,0.61086 0.54467,0.76295 5.55625,1.55146 5.79734,0.91215 17.15859,0.60919 22.35729,-0.59617 2.00448,-0.46475 2.51355,-0.46747 2.51355,-0.0134 0,0.37591 -1.15189,0.66116 -5.68855,1.40865 -3.39016,0.55859 -14.28865,0.69176 -17.72708,0.21661 z m 57.44828,-20.70698 c 0.37786,-1.56145 0.583,-1.8804 1.11921,-1.74017 0.40722,0.10649 0.99198,-0.43069 2.68704,-2.46837 7.15333,-8.59924 12.75318,-18.84821 15.6257,-28.59847 0.36041,-1.22334 0.78795,-2.18207 0.97342,-2.18281 0.46377,-0.002 0.42284,0.33083 -0.35407,2.87792 -1.45318,4.76425 -3.93531,10.57811 -6.45198,15.11242 -2.75535,4.96434 -7.66463,11.87194 -10.64938,14.98419 -0.6525,0.68038 -0.93944,1.16114 -0.75943,1.27239 0.54791,0.33862 0.28612,0.6281 -0.94842,1.04876 -0.68077,0.23196 -1.27835,0.42174 -1.32796,0.42174 -0.0496,0 -0.011,-0.32742 0.0859,-0.7276 z M 255.21827,146.8929 c -2.49148,-3.73777 -5.99758,-10.95658 -7.44318,-15.32496 -0.65894,-1.99125 -1.54093,-5.325 -1.95996,-7.40834 -0.58133,-2.8903 -0.86397,-3.80815 -1.19274,-3.87343 -0.23699,-0.047 -0.43088,-0.16213 -0.43088,-0.25574 0,-0.365 0.87477,-2.43673 1.02813,-2.43493 0.0894,0.001 0.48617,0.50706 0.88177,1.12448 0.65706,1.02547 0.67811,1.13401 0.24332,1.25486 -0.44606,0.12398 -0.45357,0.26527 -0.11959,2.24896 1.40743,8.35942 5.44486,18.24142 10.30403,25.22015 1.03308,1.4837 1.24862,2.17122 0.67745,2.16093 -0.10055,-0.002 -0.99531,-1.2222 -1.98835,-2.71198 z m 4.45136,-27.97639 c -0.22146,-0.35834 0.0774,-0.79375 0.54479,-0.79375 0.20969,0 0.38126,0.23812 0.38126,0.52917 0,0.54777 -0.63831,0.73014 -0.92605,0.26458 z m 1.89619,0.0882 c -0.35592,-0.35591 -0.16239,-0.88194 0.32447,-0.88194 0.50257,0 0.92358,0.60403 0.62743,0.90017 -0.21096,0.21097 -0.7327,0.20097 -0.9519,-0.0182 z m -3.55879,-0.57642 c -0.32464,-0.20598 -0.18566,-1.10368 0.16956,-1.09522 0.46431,0.0111 0.83083,0.4838 0.67995,0.877 -0.189,0.49251 -0.35146,0.53425 -0.84951,0.21822 z m 5.31991,-0.19993 c -0.24048,-0.6267 0.49971,-0.99158 0.90674,-0.44698 0.26456,0.35397 0.26456,0.48448 0,0.65247 -0.49654,0.31528 -0.72693,0.26307 -0.90674,-0.20549 z m -6.92444,-0.98325 c -0.24295,-0.29274 -0.22099,-0.44997 0.10009,-0.71644 0.61782,-0.51275 1.18729,0.11537 0.61944,0.68323 -0.35089,0.35089 -0.45201,0.35555 -0.71953,0.0332 z m 8.55164,0.0723 c -0.0939,-0.1519 -0.0256,-0.45102 0.15178,-0.66472 0.24637,-0.29686 0.40861,-0.31706 0.6875,-0.0856 0.27609,0.22914 0.29188,0.3911 0.0648,0.66472 -0.35878,0.4323 -0.6715,0.46191 -0.90407,0.0856 z m 1.22692,-1.40851 c -0.22873,-0.27561 -0.20227,-0.44309 0.11111,-0.70317 0.50848,-0.42199 1.0106,-0.0132 0.76616,0.62382 -0.20556,0.5357 -0.47807,0.56035 -0.87727,0.0794 z m -11.0562,-0.32639 c -0.18718,-0.48779 0.45269,-0.99622 0.80738,-0.64153 0.28879,0.28879 0.0237,1.0651 -0.36365,1.0651 -0.15465,0 -0.35433,-0.19061 -0.44373,-0.42357 z m 13.60675,-0.12361 c -0.5457,-0.28809 -0.99218,-0.57806 -0.99218,-0.64439 0,-0.12829 1.99702,-1.18968 2.23841,-1.18968 0.0786,0 0.14284,0.23813 0.14284,0.52917 0,0.49991 0.17639,0.52917 3.19061,0.52917 2.0597,0 3.13266,0.0938 3.0271,0.26458 -0.0936,0.15144 -1.45796,0.26458 -3.19062,0.26458 -2.51436,0 -3.02709,0.0672 -3.02709,0.39688 0,0.50794 -0.17884,0.48859 -1.38907,-0.15031 z m -8.89004,-1.10646 c -0.0293,-0.538 -0.17754,-0.72761 -0.56881,-0.72761 -0.66521,0 -0.66425,-0.28545 0.005,-1.59804 l 0.53455,-1.04779 h -18.26163 -18.26162 v -0.65399 -0.65399 l 3.58445,-0.0736 3.58445,-0.0736 3.0602,-6.73685 c 1.99808,-4.398674 2.94903,-6.77391 2.7399,-6.843617 -0.17615,-0.05872 -0.74506,-0.479719 -1.26423,-0.935556 -0.52735,-0.463021 -1.16673,-0.791051 -1.44876,-0.743273 -0.45912,0.07778 -0.48803,-0.03005 -0.31943,-1.19113 0.10196,-0.702159 0.21716,-1.313759 0.25599,-1.359112 0.0388,-0.04535 0.50234,0.296609 1.03002,0.759913 0.69513,0.610335 0.88524,0.931733 0.69017,1.166775 -0.28623,0.344898 0.16591,0.880044 1.18411,1.401472 0.49373,0.252838 0.82313,-0.378365 4.91846,-9.424858 3.38504,-7.477482 4.50494,-9.711554 4.89479,-9.764508 0.42362,-0.05754 1.05876,1.164526 3.92093,7.544175 l 3.41542,7.61284 1.41322,-0.258889 c 0.84037,-0.153945 1.41322,-0.396698 1.41322,-0.598863 0,-0.540028 0.36709,-0.403874 1.46132,0.54202 l 1.02032,0.881993 -1.22569,0.308632 c -1.54716,0.389577 -1.52053,0.391731 -1.52053,-0.122862 0,-0.348181 -0.18513,-0.401453 -0.95882,-0.2759 -0.52736,0.08558 -1.01091,0.207677 -1.07456,0.27133 -0.0637,0.06365 1.15964,2.926247 2.71843,6.361316 2.21368,4.878242 2.94129,6.245582 3.32351,6.245582 0.31297,0 0.48936,0.19074 0.48936,0.52916 0,0.29105 -0.1105,0.52917 -0.24556,0.52917 -0.13506,0 0.18745,0.96283 0.71668,2.13962 l 0.96225,2.13962 2.92133,-0.0518 c 4.47841,-0.0794 4.37655,-0.095 4.37655,0.66736 v 0.66146 h -3.31267 -3.31267 l 0.53454,1.04779 c 0.66599,1.30545 0.6702,1.59804 0.0229,1.59804 -0.35499,0 -0.54533,0.22273 -0.62181,0.72761 l -0.11023,0.7276 -0.0396,-0.7276 c -0.0293,-0.538 -0.17752,-0.72761 -0.5688,-0.72761 -0.66521,0 -0.66425,-0.28545 0.005,-1.59804 l 0.53456,-1.04779 h -1.20139 -1.20138 l 0.53455,1.04779 c 0.66599,1.30545 0.67019,1.59804 0.0229,1.59804 -0.35499,0 -0.54533,0.22273 -0.62182,0.72761 l -0.11022,0.7276 -0.0396,-0.7276 z m 0.75736,-4.91405 c 0.002,-0.0986 -0.32564,-0.92454 -0.72761,-1.83554 -0.6239,-1.41396 -0.81394,-1.63688 -1.29858,-1.52323 -0.73411,0.17213 -1.07015,-0.59726 -0.45675,-1.04579 0.39649,-0.28992 0.15895,-0.93877 -2.40575,-6.571359 l -2.84569,-6.249683 -0.61457,0.453419 c -0.33802,0.249381 -0.9375,0.959435 -1.33218,1.577898 -0.78268,1.226447 -1.17004,1.421675 -1.17004,0.589693 0,-0.294132 0.62508,-1.17761 1.38906,-1.963285 l 1.38906,-1.428496 -3.175,-7.028222 c -1.74625,-3.86552 -3.23453,-7.028968 -3.30729,-7.02988 -0.15918,-0.0021 -8.21249,17.750246 -8.20636,18.08964 0.002,0.133909 0.87807,0.163399 2.01019,0.0677 1.51641,-0.128182 1.97976,-0.09114 1.89878,0.151813 -0.14056,0.421685 -1.89748,0.786408 -3.28985,0.682953 l -1.10496,-0.0821 -2.93394,6.482639 c -1.61367,3.56546 -2.93215,6.57441 -2.92994,6.68656 0.005,0.25048 29.10687,0.22576 29.11142,-0.0247 z m -5.26954,-0.82496 c -0.39986,-0.24712 -0.21569,-1.07401 0.2392,-1.07401 0.3874,0 0.65244,0.77631 0.36365,1.0651 -0.13269,0.13269 -0.39628,0.13659 -0.60285,0.009 z m 1.04997,-1.58707 c -0.32012,-0.20256 -0.3237,-0.30804 -0.0227,-0.67068 0.31245,-0.37649 0.40527,-0.38219 0.7419,-0.0456 0.21162,0.21163 0.30412,0.51526 0.20555,0.67474 -0.21616,0.34976 -0.42291,0.35904 -0.92472,0.0415 z m 10.5055,7.24321 c -0.30889,-0.30889 0.11219,-0.90932 0.63769,-0.90932 0.35176,0 0.49157,0.14898 0.43168,0.45998 -0.0902,0.46861 -0.76611,0.75261 -1.06937,0.44934 z m -12.50689,-0.38015 c -0.21591,-0.34935 0.0733,-0.79375 0.51647,-0.79375 0.29496,0 0.67415,0.53304 0.67415,0.94768 0,0.2319 -1.03485,0.0981 -1.19062,-0.15393 z m 105.96562,-0.39688 v -0.66146 h 19.47286 19.47285 l -0.15475,-1.52135 c -0.0851,-0.83675 -0.34723,-4.79557 -0.58247,-8.7974 -0.23525,-4.001819 -0.46644,-7.317132 -0.51377,-7.367361 -0.1682,-0.178522 -1.58747,0.254913 -2.10697,0.643451 -0.44602,0.333584 -0.46772,0.431988 -0.13995,0.634558 0.46642,0.288264 0.43982,0.316188 -0.98582,1.035127 l -1.12448,0.567068 0.004,-0.732983 c 0.006,-1.207368 0.29623,-1.96669 0.69356,-1.814221 0.19967,0.07662 0.8819,-0.13657 1.51607,-0.473758 0.63416,-0.337188 1.37933,-0.672251 1.65594,-0.744585 0.49359,-0.129077 0.49283,-0.300818 -0.041,-9.261797 l -0.54393,-9.130281 -4.70925,-9.630211 c -2.59008,-5.296614 -4.82731,-9.749271 -4.97162,-9.894792 -0.29733,-0.299841 -2.3346,1.807829 -2.3346,2.415278 0,0.199565 -0.17859,0.362847 -0.39687,0.362847 -0.21828,0 -0.39688,-0.160729 -0.39688,-0.357177 0,-0.4832 1.45997,-2.46911 2.11673,-2.879267 0.29101,-0.181734 0.52911,-0.417171 0.52911,-0.523187 0,-0.106019 -1.41623,-3.106149 -3.14718,-6.666959 -1.73094,-3.56081 -3.08032,-6.541053 -2.99861,-6.622763 0.0817,-0.08171 0.25201,-0.148563 0.37844,-0.148563 0.12643,0 1.66515,2.958836 3.41938,6.575191 l 3.1895,6.57519 0.9683,-0.345868 c 0.53256,-0.190228 1.23027,-0.351097 1.55046,-0.357484 0.32019,-0.0064 0.6838,-0.193233 0.80803,-0.415213 0.18845,-0.336739 0.39877,-0.254141 1.26953,0.498573 l 1.04366,0.902176 -1.05794,0.2937 c -1.46853,0.407684 -1.80773,0.379283 -1.61044,-0.134837 0.1432,-0.373186 0.013,-0.407106 -0.96389,-0.251039 -0.6212,0.09924 -1.22949,0.280339 -1.35175,0.402429 -0.23242,0.232092 8.90051,19.265634 9.46567,19.726972 0.22292,0.18197 0.46527,2.74297 0.77617,8.202083 0.24863,4.365625 0.51886,8.548025 0.60051,9.294224 l 0.14846,1.356723 1.16503,0.159684 c 1.54222,0.211386 3.44107,1.172673 3.06307,1.550672 -0.19679,0.196795 -0.61852,0.123365 -1.42054,-0.247337 -1.52806,-0.70629 -2.86193,-0.954712 -2.85558,-0.531831 0.003,0.178263 0.23955,4.074583 0.52639,8.658488 0.28684,4.58391 0.52278,8.4832 0.5243,8.6651 0.002,0.24525 0.78919,0.33073 3.04549,0.33073 h 3.0427 v 0.66146 0.66146 h -23.01875 -23.01875 z m -93.13333,-1.43581 c 0,-0.37864 0.16992,-0.54856 0.54857,-0.54856 0.67803,0 0.60111,0.87572 -0.0886,1.00855 -0.3175,0.0611 -0.45998,-0.0813 -0.45998,-0.45999 z m -13.09688,-0.0194 c -0.0899,-0.14552 -0.0899,-0.38364 0,-0.52916 0.27621,-0.44691 0.8567,-0.29374 1.00271,0.26458 0.1015,0.38814 0.008,0.52917 -0.3504,0.52917 -0.26883,0 -0.56237,-0.11907 -0.65231,-0.26459 z m 12.21487,-3.55253 c -0.22489,-0.58606 0.47472,-1.03926 0.86968,-0.56336 0.17736,0.2137 0.24566,0.51282 0.15178,0.66472 -0.24673,0.39923 -0.85243,0.33913 -1.02146,-0.10136 z m -1.11661,-1.4976 c -0.0978,-0.1582 -0.0503,-0.41509 0.10546,-0.57087 0.33017,-0.33018 1.1891,0.23475 0.94859,0.6239 -0.20138,0.32585 -0.83974,0.29373 -1.05405,-0.053 z m -1.5875,-1.05834 c -0.24896,-0.40282 0.29168,-0.87314 0.78575,-0.68355 0.2377,0.0912 0.34454,0.32851 0.25406,0.5643 -0.18058,0.47058 -0.78018,0.53934 -1.03981,0.11925 z m -1.6394,-0.4448 c -0.60971,-0.10049 -0.80656,-0.69327 -0.32836,-0.98881 0.40394,-0.24965 1.32055,0.1202 1.32055,0.53284 0,0.46417 -0.24877,0.5785 -0.99219,0.45597 z m -6.41615,-35.795678 c 0,-0.154112 0.73636,-1.25544 1.63635,-2.447396 6.09738,-8.075435 13.2479,-14.633298 22.24652,-20.402668 2.2089,-1.416209 2.81571,-1.929601 2.70246,-2.286412 -0.12357,-0.389347 0.0691,-0.476804 1.25255,-0.568528 0.76922,-0.05962 1.43399,-0.0856 1.47727,-0.05773 0.0433,0.02787 -0.2505,0.595669 -0.65285,1.261782 -0.63547,1.052072 -0.78479,1.163806 -1.13702,0.850859 -0.34922,-0.310265 -0.75427,-0.140206 -2.91903,1.225534 -8.52718,5.379785 -16.68529,12.82078 -22.05361,20.115059 -1.70935,2.32261 -2.55264,3.085573 -2.55264,2.3095 z m 119.85625,-0.566994 c -0.50932,-0.315534 -0.97763,-0.61317 -1.04069,-0.661411 -0.0631,-0.04824 0.0228,-0.225145 0.19076,-0.393121 0.509,-0.509008 -2.28766,-4.129365 -6.67129,-8.636155 -7.06188,-7.260285 -15.27977,-12.748913 -24.42721,-16.314644 -1.12022,-0.436664 -1.91823,-0.902872 -1.91823,-1.120641 0,-0.449974 0.33999,-0.360199 3.43958,0.908202 8.57422,3.508713 15.65595,8.269708 22.50948,15.13297 3.64957,3.65475 6.3722,6.759011 7.68288,8.759774 0.35348,0.539599 0.49505,0.594714 0.82475,0.32109 0.3394,-0.281673 0.42225,-0.183711 0.56254,0.665091 0.35136,2.125813 0.2701,2.220211 -1.15257,1.338845 z m -82.81458,-3.516675 v -0.659707 l 18.87286,-0.0679 18.87286,-0.0679 -2.38651,-8.598957 c -1.31259,-4.729427 -2.42397,-8.649037 -2.46974,-8.710245 -0.17037,-0.227826 -1.38941,1.133532 -1.81147,2.022955 -0.3231,0.680873 -0.5147,0.843926 -0.73399,0.624629 -0.38416,-0.384156 0.42047,-1.931017 1.45902,-2.804899 0.4074,-0.342802 0.74072,-0.751006 0.74072,-0.90712 0,-0.468934 -4.28242,-15.741853 -4.47291,-15.952283 -0.0969,-0.107071 -3.55247,2.441951 -7.67898,5.664492 -8.26483,6.454285 -8.04975,6.176196 -5.28906,6.838474 0.77658,0.1863 1.30137,0.458927 1.30137,0.676064 0,0.454115 -1.21236,0.264856 -2.87791,-0.449265 -0.63696,-0.273103 -1.24922,-0.496552 -1.36058,-0.496552 -0.11135,0 -3.09737,2.259192 -6.63559,5.020427 -4.38845,3.424751 -6.49635,4.918127 -6.63205,4.698565 -0.24751,-0.400475 -0.91504,0.175408 6.45299,-5.56703 4.88253,-3.805305 6.19949,-4.956565 5.92785,-5.182005 -0.19207,-0.159406 -0.56429,-0.766764 -0.82715,-1.349684 -0.30982,-0.687044 -0.6515,-1.059856 -0.97137,-1.059856 -0.4553,0 -0.43945,-0.106542 0.20499,-1.378292 l 0.69844,-1.378292 0.61698,1.179855 c 0.73626,1.407949 0.76239,1.576729 0.24402,1.576729 -0.21828,0 -0.39643,0.0893 -0.39588,0.198438 0.002,0.368873 1.04768,1.918229 1.29484,1.918229 0.1349,0 3.84208,-2.80899 8.23818,-6.242199 6.68357,-5.219652 8.05092,-6.184009 8.34711,-5.886979 0.19482,0.195371 1.39058,4.069608 2.65725,8.609415 1.96949,7.05879 2.36376,8.22236 2.72243,8.034372 0.23067,-0.120904 0.92535,-0.303636 1.54374,-0.406073 0.61838,-0.102438 1.22012,-0.357416 1.3372,-0.56662 0.17046,-0.304596 0.42077,-0.200648 1.25652,0.521806 l 1.04367,0.902175 -1.05795,0.293701 c -1.43518,0.398428 -1.80628,0.375522 -1.62372,-0.100224 0.18295,-0.476754 -0.33685,-0.510635 -1.76209,-0.114855 -0.75973,0.210971 -0.97173,0.388159 -0.86879,0.726129 0.37365,1.226821 4.91645,17.530702 4.91645,17.644893 0,0.07281 1.60734,0.132374 3.57187,0.132374 h 3.57188 v 0.661458 0.661459 h -23.01875 -23.01875 z"
         id="path35"
         inkscape:connector-curvature="0" />
      <path
         style="fill:#a3a3a3;stroke-width:0.26458332"
         d="m 240.92832,189.38387 c -0.097,-0.097 -0.17639,-0.39122 -0.17639,-0.65378 0,-0.43236 0.33024,-0.48436 3.50114,-0.55122 l 3.50114,-0.0738 2.56672,-9.12813 c 1.41169,-5.02047 2.6408,-9.41348 2.73135,-9.76225 l 0.16463,-0.63414 -2.1614,0.14815 c -1.34395,0.0921 -2.06764,0.0544 -1.9135,-0.0998 0.32596,-0.32597 3.05883,-0.76537 3.70661,-0.59597 0.45622,0.1193 0.69825,-0.55759 2.44248,-6.83108 1.06484,-3.82992 2.04147,-7.33861 2.17029,-7.79707 0.12881,-0.45846 0.42329,-0.90613 0.65438,-0.99481 0.28551,-0.10956 2.9763,1.83219 8.39535,6.05829 4.38635,3.42074 8.07749,6.21989 8.20254,6.22033 0.12504,5.3e-4 0.18222,-0.89295 0.12706,-1.98531 -0.0644,-1.27497 -0.004,-1.95359 0.16952,-1.89526 0.15441,0.052 0.26981,1.03079 0.26981,2.28847 v 2.19761 l 6.43469,5.02369 c 4.23697,3.30789 6.34542,5.11296 6.17332,5.28505 -0.1721,0.1721 -2.40837,-1.41469 -6.54756,-4.64595 l -6.2862,-4.90732 -1.00156,1.10585 c -0.55086,0.60822 -0.95029,1.25468 -0.88762,1.43658 0.12293,0.35679 -1.31996,0.46821 -2.11459,0.16329 -0.36781,-0.14115 -0.30205,-0.30601 0.41862,-1.04956 0.74865,-0.7724 0.89295,-0.83019 1.16024,-0.46466 0.26689,0.365 0.39444,0.31147 1.01494,-0.42595 0.39032,-0.46388 0.70968,-0.94601 0.70968,-1.07141 0,-0.24343 -15.60954,-12.52651 -15.73747,-12.38375 -0.10224,0.11409 -4.10628,14.50148 -4.10628,14.75477 0,0.10985 0.59531,0.5698 1.32292,1.0221 0.7276,0.45231 1.32291,0.94635 1.32291,1.09789 0,0.15153 0.23813,0.27551 0.52917,0.27551 0.45194,0 0.52917,0.17639 0.52917,1.20864 v 1.20864 l -0.78575,-0.5595 c -1.01178,-0.72045 -1.21804,-1.07134 -0.78652,-1.33803 0.46535,-0.2876 0.0639,-0.75831 -1.30106,-1.52545 l -1.05138,-0.59091 -0.27574,0.86445 c -0.30066,0.94258 -4.64715,16.54959 -4.93819,17.73163 l -0.17915,0.72761 h 18.94639 18.9464 v 0.66146 0.66146 h -22.84236 c -12.5633,0 -22.92174,-0.0794 -23.01875,-0.17639 z m 86.07777,-1.27882 v -0.66146 h 13.38351 c 7.36093,0 13.34382,-0.099 13.29531,-0.21988 -0.3096,-0.77189 -9.65126,-16.17977 -9.81087,-16.18179 -0.37255,-0.005 -2.34991,1.94171 -2.74114,2.69825 -0.21505,0.41588 -0.50689,0.68452 -0.64853,0.59699 -0.39571,-0.24457 0.522,-1.62761 1.91672,-2.88859 l 1.23978,-1.1209 -4.33395,-7.22958 c -3.13477,-5.2292 -4.27316,-7.3453 -4.11422,-7.64777 0.4155,-0.79077 7.95298,-17.46649 7.95298,-17.59496 0,-0.23092 -1.96084,-0.67961 -2.97657,-0.68112 -0.56385,-8e-4 -0.99218,-0.13134 -0.99218,-0.30229 0,-0.30118 2.65237,-0.18792 3.83645,0.16382 0.47278,0.14044 0.89571,-0.66386 3.96875,-7.54763 3.0794,-6.89798 3.82865,-8.28638 4.24636,-7.86868 0.0674,0.0674 -1.48943,3.669 -3.45955,8.00363 l -3.58205,7.88113 1.03039,0.88198 c 0.56672,0.48508 1.17753,1.23719 1.35736,1.67134 0.17983,0.43415 0.52855,0.82589 0.77493,0.87052 0.41711,0.0756 0.41864,0.15992 0.0221,1.22505 l -0.42584,1.14389 -0.68186,-1.03036 c -0.61629,-0.93127 -0.63999,-1.05722 -0.24645,-1.30956 0.38876,-0.24928 0.34908,-0.38676 -0.37024,-1.28284 -0.82189,-1.02385 -1.60492,-1.65459 -1.77995,-1.43379 -0.0536,0.0676 -1.8396,3.97851 -3.9689,8.69089 l -3.87145,8.56796 4.25815,7.17475 c 2.34199,3.94611 4.29537,7.21886 4.34087,7.27277 0.22851,0.27081 2.46387,-0.30008 2.53779,-0.64813 0.0618,-0.29087 0.3479,-0.17136 1.12223,0.4687 l 1.03933,0.8591 -1.17162,0.28893 c -0.9973,0.24594 -1.1913,0.22741 -1.30391,-0.12451 -0.096,-0.29998 -0.36037,-0.37706 -0.96347,-0.28089 l -0.83117,0.13253 5.02242,8.40052 5.02242,8.40052 h 8.83948 8.83948 v 0.66146 0.66146 h -22.88645 -22.88646 v -0.66146 z m -17.19791,-6.49926 c -1.23693,-0.13641 -3.61237,-0.50349 -5.27875,-0.81573 -2.18141,-0.40875 -3.05811,-0.48278 -3.13091,-0.26439 -0.0556,0.16684 -0.24001,0.29985 -0.40979,0.29558 -0.31632,-0.008 -2.15247,-1.56378 -1.98758,-1.68415 0.0503,-0.0367 0.65695,-0.19029 1.34817,-0.34133 1.13113,-0.24715 1.25677,-0.22756 1.25677,0.19594 0,0.52015 0.77847,0.73748 5.42396,1.51429 2.01566,0.33705 4.3473,0.44263 9.78958,0.44331 7.17403,7.9e-4 8.46257,-0.11871 14.35365,-1.33223 0.65669,-0.13528 0.8599,-0.0863 0.8599,0.20708 0,0.39621 -0.98103,0.63334 -5.95313,1.43897 -2.90545,0.47076 -13.15342,0.68657 -16.27187,0.34266 z m 56.09166,-20.15587 c 0,-0.0666 0.12955,-0.52583 0.28789,-1.02049 0.15834,-0.49466 0.33834,-1.06162 0.40001,-1.25991 0.0826,-0.26567 0.20331,-0.28484 0.45873,-0.0729 0.26399,0.2191 0.56742,0.0528 1.27296,-0.6978 6.89858,-7.33876 14.19211,-20.11152 17.0005,-29.77207 0.72234,-2.48476 0.94104,-2.94872 1.24613,-2.64364 0.58865,0.58865 -2.52633,9.13844 -5.43088,14.90634 -3.25493,6.46366 -8.1012,13.58278 -12.26343,18.01482 -0.56689,0.60365 -0.79575,1.02816 -0.61464,1.1401 0.50468,0.31191 0.31582,0.56021 -0.70362,0.9251 -0.5457,0.19532 -1.14102,0.41057 -1.32292,0.47833 -0.1819,0.0678 -0.33073,0.0687 -0.33073,0.002 z M 255.15853,146.73956 c -4.701,-7.18705 -8.48724,-16.72397 -9.70034,-24.43358 -0.26994,-1.71556 -0.40815,-2.06655 -0.81375,-2.06655 -0.51877,0 -0.49285,-0.26548 0.19346,-1.98189 l 0.31639,-0.79127 0.86312,1.18814 c 0.81936,1.12792 0.83518,1.19243 0.31195,1.27274 -0.41229,0.0633 -0.52016,0.22995 -0.4281,0.66146 0.0677,0.31727 0.31521,1.58889 0.55006,2.82582 1.51989,8.00516 4.73412,15.90664 9.31803,22.90636 0.85051,1.29874 1.62884,2.4977 1.72962,2.66435 0.10079,0.16665 0.0292,0.36213 -0.15915,0.43439 -0.21273,0.0816 -1.03882,-0.93332 -2.18129,-2.67997 z m 6.49548,-28.09594 c 0,-0.2866 0.1785,-0.52086 0.39687,-0.52086 0.21829,0 0.39688,0.16586 0.39688,0.36857 0,0.20271 -0.17859,0.4371 -0.39688,0.52086 -0.26995,0.10359 -0.39687,-0.0143 -0.39687,-0.36857 z m -1.94776,-0.12399 c 0.0838,-0.21828 0.31815,-0.39687 0.52086,-0.39687 0.20271,0 0.36857,0.17859 0.36857,0.39687 0,0.21838 -0.23427,0.39688 -0.52087,0.39688 -0.35428,0 -0.47215,-0.12692 -0.36856,-0.39688 z m 3.79984,-0.40517 c 0,-0.2866 0.1785,-0.52087 0.39688,-0.52087 0.21828,0 0.39687,0.16586 0.39687,0.36857 0,0.20271 -0.17859,0.4371 -0.39687,0.52086 -0.26995,0.10359 -0.39688,-0.0143 -0.39688,-0.36856 z m -5.55625,-0.12399 c 0,-0.21828 0.1786,-0.39688 0.39688,-0.39688 0.21828,0 0.39687,0.1786 0.39687,0.39688 0,0.21828 -0.17859,0.39687 -0.39687,0.39687 -0.21828,0 -0.39688,-0.17859 -0.39688,-0.39687 z m 7.17261,-0.75898 c -0.23588,-0.28422 -0.24075,-0.43298 -0.0187,-0.57025 0.43151,-0.26669 0.96685,0.32571 0.61358,0.67898 -0.19134,0.19134 -0.37353,0.15805 -0.59493,-0.10873 z m -8.87387,-0.13708 c -0.0797,-0.12904 0.0165,-0.36863 0.21386,-0.53243 0.26956,-0.22372 0.43287,-0.20866 0.65625,0.0605 0.16357,0.19708 0.21905,0.43667 0.1233,0.53243 -0.24959,0.24959 -0.82336,0.21464 -0.99341,-0.0605 z m -1.037,-1.47672 c -0.18659,-0.48626 0.30948,-0.8233 0.67451,-0.45826 0.28242,0.28242 0.0793,0.84666 -0.3048,0.84666 -0.12137,0 -0.28773,-0.17478 -0.36971,-0.3884 z m 11.05839,0.10077 c -0.0978,-0.15821 -0.074,-0.39137 0.0527,-0.51815 0.31292,-0.31292 1.00161,0.14258 0.77354,0.51162 -0.23113,0.37397 -0.5974,0.37686 -0.82628,0.007 z m 2.46164,-0.25955 c -0.5457,-0.28809 -0.99218,-0.57806 -0.99218,-0.64439 0,-0.12829 1.99702,-1.18968 2.23841,-1.18968 0.0786,0 0.14284,0.23813 0.14284,0.52917 0,0.49727 0.19535,0.5326 3.24114,0.58606 l 3.24115,0.0569 -3.13588,0.084 c -2.85829,0.0766 -3.14793,0.13011 -3.27201,0.60457 -0.16536,0.63236 -0.21693,0.63142 -1.46347,-0.0267 z m -8.89004,-1.23875 c -0.0309,-0.6703 -0.15632,-0.8599 -0.56881,-0.8599 -0.29104,0 -0.52917,-0.0643 -0.52917,-0.14283 0,-0.24244 1.06167,-2.23842 1.19063,-2.23842 0.119,0 1.19062,1.98691 1.19062,2.20756 0,0.0616 -0.22891,0.17183 -0.50868,0.245 -0.31184,0.0816 -0.55247,0.42624 -0.62182,0.89075 -0.11088,0.74268 -0.11391,0.74065 -0.15277,-0.10216 z m 2.64583,0 c -0.0309,-0.6703 -0.15632,-0.8599 -0.56881,-0.8599 -0.29104,0 -0.52916,-0.0643 -0.52916,-0.14283 0,-0.24244 1.06167,-2.23842 1.19062,-2.23842 0.11901,0 1.19063,1.98691 1.19063,2.20756 0,0.0616 -0.22891,0.17183 -0.50869,0.245 -0.31184,0.0816 -0.55246,0.42624 -0.62181,0.89075 -0.11089,0.74268 -0.11392,0.74065 -0.15278,-0.10216 z m 4.78901,0.0232 c -0.46525,-0.18772 -0.41316,-0.8831 0.0661,-0.8831 0.22049,0 0.39688,0.23519 0.39688,0.52917 0,0.29104 -0.0298,0.51976 -0.0662,0.50827 -0.0364,-0.0115 -0.21497,-0.0809 -0.39687,-0.15433 z m -12.7194,-0.53045 c 0.12873,-0.66377 0.747,-0.75492 0.747,-0.11011 0,0.32499 -0.17084,0.55121 -0.41627,0.55121 -0.24639,0 -0.38137,-0.18001 -0.33073,-0.44109 z m 106.05117,-0.35265 c 0,-0.52434 0.17639,-0.52917 19.33715,-0.52917 h 19.33716 l -0.15755,-1.91823 c -0.0866,-1.05502 -0.34557,-5.07338 -0.57538,-8.92968 -0.2298,-3.856304 -0.45683,-7.051174 -0.50449,-7.099715 -0.0477,-0.04854 -0.64124,0.157062 -1.31905,0.456891 -0.95021,0.420319 -1.19865,0.65257 -1.08501,1.014296 0.10883,0.346416 -0.1385,0.632851 -0.94543,1.094901 l -1.09281,0.62575 0.17145,-0.857261 c 0.0943,-0.471492 0.17146,-1.086418 0.17146,-1.366501 0,-0.394988 0.0977,-0.454578 0.43536,-0.265602 0.31089,0.173985 0.69162,0.06974 1.3317,-0.364635 0.49299,-0.33455 1.25813,-0.687734 1.70031,-0.784855 0.75266,-0.165312 0.79496,-0.238281 0.66289,-1.143571 -0.0776,-0.531845 -0.33512,-4.598398 -0.57232,-9.036783 l -0.43126,-8.069791 -4.92739,-10.145164 -4.92739,-10.145164 -1.06772,1.161404 c -0.58725,0.638773 -1.20259,1.394097 -1.36742,1.678498 -0.16484,0.284401 -0.38197,0.438862 -0.48253,0.343244 -0.30458,-0.289613 0.55197,-1.660443 1.66688,-2.667698 l 1.0512,-0.949698 -3.25869,-6.617431 c -1.79228,-3.639586 -3.19027,-6.685853 -3.10664,-6.76948 0.0836,-0.08363 0.23972,-0.152051 0.34687,-0.152051 0.10716,0 1.65807,2.980496 3.44648,6.623325 2.59781,5.291524 3.33449,6.585916 3.66368,6.437286 0.22661,-0.10232 0.93263,-0.238466 1.56892,-0.302543 0.84296,-0.08489 1.19164,-0.249407 1.28496,-0.606266 0.11526,-0.440748 0.23227,-0.406025 1.16931,0.347001 l 1.04123,0.836758 -1.13557,0.339661 c -1.44984,0.43366 -1.54747,0.430138 -1.36354,-0.04918 0.11363,-0.296121 -0.0396,-0.395957 -0.60362,-0.393263 -1.10478,0.0053 -1.94654,0.278392 -1.94654,0.631563 0,0.388633 9.19008,19.198964 9.64318,19.737741 0.22895,0.272235 0.47248,2.931218 0.77544,8.466666 0.55155,10.077748 0.58027,10.318749 1.22934,10.318749 0.6745,0 3.3811,1.024409 3.58705,1.357649 0.32186,0.520784 -0.11875,0.523047 -1.13261,0.0058 -0.56658,-0.289045 -1.47108,-0.608259 -2.01001,-0.709362 -1.17957,-0.221286 -1.1238,-1.389686 -0.44863,9.400061 0.28684,4.58391 0.52278,8.36414 0.5243,8.40052 0.002,0.0364 1.372,0.0662 3.04549,0.0662 2.86631,0 3.0427,0.0307 3.0427,0.52917 0,0.52508 -0.17639,0.52916 -22.88645,0.52916 -22.71007,0 -22.88646,-0.004 -22.88646,-0.52916 z m -106.3625,-1.60955 c 0,-0.6448 0.61827,-0.55366 0.747,0.11012 0.0506,0.26108 -0.0843,0.4411 -0.33073,0.4411 -0.24543,0 -0.41627,-0.22622 -0.41627,-0.55122 z m 12.96458,0.17374 c 0,-0.24543 0.22622,-0.41627 0.55121,-0.41627 0.64481,0 0.55366,0.61827 -0.11012,0.747 -0.26108,0.0506 -0.44109,-0.0843 -0.44109,-0.33073 z m -43.92083,-1.73172 c 0,-0.49001 0.21843,-0.52617 3.59518,-0.59532 l 3.59518,-0.0736 2.88698,-6.33963 c 1.58785,-3.486805 2.94533,-6.523459 3.01664,-6.748127 0.14689,-0.462802 -2.3855,-2.498945 -2.79399,-2.246482 -0.13912,0.08598 -0.24583,-0.434491 -0.24583,-1.19907 v -1.351 l 1.05358,0.846677 c 0.93871,0.75437 1.00566,0.881706 0.61412,1.168011 -0.38852,0.284091 -0.30613,0.409567 0.71081,1.082543 0.63264,0.418666 1.19566,0.64281 1.25116,0.498102 0.0555,-0.144706 2.04629,-4.549354 4.42398,-9.788104 3.34986,-7.380692 4.43001,-9.524999 4.79804,-9.524999 0.41483,0 2.95826,5.215982 7.31067,14.992463 0.13408,0.301164 2.89605,-0.36816 3.03721,-0.736024 0.0975,-0.254066 0.3779,-0.153685 1.03478,0.370446 1.09027,0.869924 1.11021,1.00747 0.17347,1.196512 -0.40019,0.08076 -0.9449,0.23087 -1.21048,0.333579 -0.37483,0.144965 -0.46362,0.07558 -0.39687,-0.310113 0.0727,-0.420367 -0.0566,-0.483563 -0.84005,-0.410501 -0.50932,0.04749 -1.02657,0.182798 -1.14943,0.300675 -0.12286,0.117877 1.06776,3.082671 2.64583,6.588432 2.15425,4.78577 2.9846,6.37507 3.33225,6.37797 0.47609,0.004 0.65421,0.68398 0.22047,0.8417 -0.1334,0.0485 0.18102,1.01093 0.69871,2.13871 l 0.94125,2.05052 h 3.66692 c 3.49053,0 3.66692,0.0255 3.66692,0.52917 0,0.52511 -0.17639,0.52917 -23.01875,0.52917 -22.73255,0 -23.01875,-0.006 -23.01875,-0.5217 z m 36.56306,-2.69289 c -0.52719,-1.17223 -1.00228,-2.00006 -1.05576,-1.83962 -0.12172,0.36516 -0.76025,0.38136 -0.98056,0.0249 -0.0907,-0.14676 0.0756,-0.35581 0.36963,-0.46456 0.50095,-0.18532 0.35257,-0.59661 -2.36162,-6.546201 -1.80938,-3.966207 -3.02125,-6.316492 -3.22952,-6.263266 -0.55997,0.143105 -1.73184,1.388044 -2.06602,2.194845 -0.31413,0.758352 -0.78088,1.035204 -0.78088,0.463167 0,-0.52763 1.07033,-2.052736 1.96952,-2.806346 l 0.87174,-0.730623 -3.19686,-7.077603 c -1.75828,-3.892682 -3.26382,-7.077604 -3.34565,-7.077604 -0.0818,0 -1.24014,2.411015 -2.57402,5.357812 -1.33388,2.946797 -3.20413,7.064877 -4.15611,9.151291 l -1.73087,3.79348 1.96533,-0.08202 c 1.08093,-0.04511 2.03971,-0.0076 2.13063,0.08328 0.27796,0.277961 -2.53533,0.766699 -3.43825,0.59731 l -0.84767,-0.159022 -1.41226,3.130494 c -0.77674,1.721776 -2.15869,4.769156 -3.07101,6.771956 l -1.65876,3.64145 14.77874,-0.0159 14.77875,-0.0159 -0.95852,-2.13133 z m -4.6477,0.88685 c -0.23251,-0.37621 0.2262,-0.83125 0.60312,-0.5983 0.19671,0.12158 0.27583,0.35341 0.17584,0.51521 -0.21247,0.34378 -0.59277,0.38434 -0.77896,0.0831 z m 1.18591,-1.47456 c -0.23939,-0.28844 -0.20844,-0.40685 0.14142,-0.5411 0.60784,-0.23325 1.00651,0.21196 0.538,0.60079 -0.28824,0.23921 -0.44261,0.22565 -0.67942,-0.0597 z m 10.02581,1.56895 c 0,-0.54696 0.54847,-0.80936 0.80937,-0.38722 0.13294,0.21511 0.0948,0.4379 -0.0957,0.55901 -0.48101,0.30578 -0.71364,0.24978 -0.71364,-0.17179 z m -1.15755,-1.41731 c -0.0718,-0.11609 -0.0242,-0.38298 0.10566,-0.5931 0.17847,-0.28877 0.31067,-0.30746 0.54157,-0.0766 0.168,0.168 0.22547,0.4349 0.12769,0.5931 -0.20893,0.33805 -0.59004,0.37571 -0.77492,0.0766 z m -1.41038,-1.0637 c -0.20309,-0.12551 -0.22965,-0.33178 -0.075,-0.58208 0.19081,-0.30875 0.30648,-0.3208 0.56811,-0.0592 0.39459,0.39458 -0.02,0.93367 -0.49316,0.64124 z m -2.19457,-0.97418 c 0,-0.2456 0.24896,-0.39688 0.65316,-0.39688 0.47187,0 0.61088,0.11015 0.50085,0.39688 -0.0838,0.21828 -0.37768,0.39687 -0.65315,0.39687 -0.27547,0 -0.50086,-0.17859 -0.50086,-0.39687 z m -6.08542,-35.288587 c 0,-0.414766 3.85802,-5.39291 6.32323,-8.159096 2.66737,-2.993025 7.09851,-7.093852 10.7424,-9.941612 2.48942,-1.945524 9.30993,-6.538831 9.70939,-6.538831 0.1271,0 0.10366,-0.238125 -0.0521,-0.529166 -0.26739,-0.499618 -0.20121,-0.529167 1.18507,-0.529167 h 1.46827 l -0.70037,1.058333 c -0.74587,1.127083 -0.89593,1.215789 -1.32718,0.784536 -0.3337,-0.333692 -6.93122,3.993399 -10.67996,7.004624 -5.51341,4.428721 -11.22308,10.336573 -14.64866,15.157112 -1.20377,1.693978 -2.02009,2.378225 -2.02009,1.693267 z m 119.98855,-0.620419 c -1.34389,-0.682675 -1.32084,-0.656961 -0.96885,-1.081085 0.2289,-0.275807 0.10316,-0.626837 -0.54723,-1.527746 -2.67519,-3.705635 -8.59489,-9.85548 -12.5225,-13.009346 -4.91756,-3.948802 -11.59713,-7.837485 -17.3807,-10.118619 -1.46175,-0.57654 -2.57968,-1.17011 -2.57968,-1.36969 0,-0.470839 -0.11457,-0.498987 2.97124,0.730006 5.76464,2.295895 12.64101,6.311393 17.51831,10.229928 3.94186,3.166983 10.06746,9.544965 12.58027,13.098586 0.6324,0.894342 1.02155,1.218184 1.34173,1.116563 0.3653,-0.11594 0.48583,0.08919 0.63436,1.079654 0.10085,0.672536 0.14467,1.260271 0.0974,1.306081 -0.0473,0.04581 -0.56224,-0.158642 -1.14432,-0.454332 z m -82.94688,-3.512161 v -0.659707 l 18.8861,-0.0679 18.88611,-0.0679 -2.38981,-8.598957 c -1.31439,-4.729427 -2.44078,-8.658086 -2.50309,-8.730353 -0.12732,-0.147675 -1.62949,1.481019 -2.09047,2.266533 -0.16483,0.280882 -0.38197,0.432463 -0.48253,0.336845 -0.27848,-0.264801 0.49767,-1.575315 1.50773,-2.545759 L 325.32724,46.67 323.09895,38.673984 c -1.22556,-4.397809 -2.31473,-8.087755 -2.42038,-8.199881 -0.10565,-0.112127 -3.59098,2.447539 -7.7452,5.688146 -8.35779,6.519726 -8.12221,6.210197 -5.2463,6.89335 0.73005,0.173418 1.32736,0.421408 1.32736,0.55109 0,0.356975 -2.03272,-0.04285 -3.17151,-0.623815 l -1.00628,-0.513366 -6.42373,5.018292 c -3.53306,2.760061 -6.51509,5.018292 -6.62675,5.018292 -0.81737,0 0.3133,-1.02721 5.9844,-5.436844 6.1439,-4.777259 6.43011,-5.039202 6.05694,-5.543364 -0.21542,-0.291041 -0.5833,-0.975651 -0.81751,-1.521354 -0.23421,-0.545703 -0.58637,-0.992187 -0.78257,-0.992187 -0.19621,0 -0.35674,-0.05549 -0.35674,-0.123315 0,-0.286887 0.90601,-1.993352 1.05833,-1.993352 0.33427,0 1.11258,1.966293 0.81727,2.064729 -0.15845,0.05282 -0.2881,0.308182 -0.2881,0.567472 0,0.52784 0.96254,1.865716 1.34229,1.865716 0.13506,0 3.82761,-2.79622 8.20567,-6.213822 6.61616,-5.164711 8.01941,-6.154518 8.31136,-5.862568 0.19319,0.19319 1.38384,4.031207 2.64588,8.528926 1.26204,4.49772 2.32737,8.210769 2.36739,8.25122 0.04,0.04045 0.39469,-0.04885 0.78814,-0.198437 0.39346,-0.149593 1.07596,-0.271986 1.51668,-0.271986 0.57353,0 0.83987,-0.147514 0.93701,-0.518977 0.1262,-0.482598 0.20888,-0.460177 1.17951,0.319838 1.13505,0.912148 1.10403,0.967647 -0.76919,1.376405 -0.74454,0.162465 -0.83615,0.126372 -0.68422,-0.269559 0.15527,-0.40462 0.031,-0.440863 -1.0816,-0.315456 -0.69137,0.07793 -1.3661,0.250757 -1.49941,0.384067 -0.14679,0.146787 0.64736,3.419547 2.01357,8.298137 1.24076,4.430662 2.37681,8.502237 2.52454,9.04794 l 0.26861,0.992187 h 3.42938 3.42939 v 0.661458 0.661459 h -22.88646 -22.88646 z"
         id="path33"
         inkscape:connector-curvature="0" />
      <path
         style="fill:#638ead;stroke-width:0.26458332"
         d="m 240.92832,189.38387 c -0.097,-0.097 -0.17639,-0.39467 -0.17639,-0.66146 0,-0.44608 0.28311,-0.48507 3.52178,-0.48507 h 3.52178 l 2.60015,-9.32656 c 1.43008,-5.12961 2.66192,-9.55322 2.73742,-9.83024 0.12918,-0.47403 0.009,-0.49484 -2.05084,-0.35369 -1.36056,0.0932 -2.09435,0.0562 -1.94021,-0.0979 0.33389,-0.3339 3.06584,-0.76354 3.73777,-0.58783 0.45112,0.11797 0.58673,-0.0445 0.84327,-1.01024 0.16814,-0.63295 1.12842,-4.09098 2.13396,-7.68451 1.00554,-3.59353 1.82825,-6.58712 1.82825,-6.65242 0,-0.0653 0.18199,-0.18856 0.40442,-0.27391 0.26463,-0.10155 3.10282,1.9505 8.2106,5.93638 4.2934,3.35037 7.99487,6.16399 8.22548,6.25249 0.36535,0.14019 0.40614,-0.0999 0.31699,-1.8654 -0.0658,-1.30353 -0.006,-1.99357 0.16749,-1.93455 0.15484,0.0526 0.26981,1.04453 0.26981,2.32764 v 2.2359 l 6.28386,4.88085 c 5.26864,4.09232 6.88958,5.54859 6.17594,5.54859 -0.0593,0 -2.93132,-2.20165 -6.38218,-4.89256 l -6.27427,-4.89255 -1.01611,1.12224 c -0.55886,0.61724 -0.96484,1.27108 -0.90217,1.45298 0.12293,0.35679 -1.31996,0.46821 -2.11459,0.16329 -0.36781,-0.14115 -0.30205,-0.30601 0.41862,-1.04956 0.74865,-0.7724 0.89295,-0.83019 1.16024,-0.46466 0.26689,0.365 0.39444,0.31147 1.01494,-0.42595 0.39032,-0.46388 0.70226,-0.9831 0.69318,-1.15384 -0.0176,-0.33099 -15.54711,-12.48397 -15.72507,-12.30601 -0.14224,0.14224 -4.10122,14.29968 -4.10176,14.66801 -2.3e-4,0.16015 0.59489,0.66125 1.3225,1.11355 0.7276,0.45231 1.32291,0.94635 1.32291,1.09789 0,0.15153 0.23813,0.27551 0.52917,0.27551 0.45194,0 0.52917,0.17639 0.52917,1.20864 v 1.20864 l -0.78575,-0.5595 c -1.01178,-0.72045 -1.21804,-1.07134 -0.78652,-1.33803 0.46746,-0.28891 0.0629,-0.75886 -1.32457,-1.53866 -0.82014,-0.46095 -1.10455,-0.52153 -1.20005,-0.25563 -0.31877,0.88758 -5.16353,18.43247 -5.16353,18.69929 0,0.2239 4.90773,0.30233 18.91771,0.30233 h 18.91771 v 0.66146 0.66146 h -22.84236 c -12.5633,0 -22.92174,-0.0794 -23.01875,-0.17639 z m 86.07777,-1.27882 v -0.66146 h 13.36146 c 7.3488,0 13.36146,-0.0627 13.36146,-0.13934 0,-0.33498 -9.62508,-16.26483 -9.82748,-16.26483 -0.39723,0 -2.36427,1.91881 -2.76863,2.70075 -0.21505,0.41588 -0.50689,0.68452 -0.64853,0.59699 -0.39722,-0.24551 0.52391,-1.62934 1.93175,-2.9021 l 1.25482,-1.13442 -4.24312,-7.10509 c -2.91978,-4.88915 -4.20078,-7.27012 -4.10736,-7.63425 0.0747,-0.29104 1.86589,-4.32446 3.98049,-8.96316 2.1146,-4.6387 3.84473,-8.5324 3.84473,-8.65267 0,-0.30607 -1.78847,-0.76947 -2.97657,-0.77123 -0.56385,-8e-4 -0.99218,-0.13134 -0.99218,-0.30229 0,-0.30398 2.67116,-0.186 3.84649,0.16991 0.48609,0.14719 0.88836,-0.60718 4.08367,-7.65812 3.16723,-6.98897 3.97609,-8.51943 3.97609,-7.52327 0,0.16397 -1.56167,3.74233 -3.47038,7.95191 l -3.47037,7.65378 1.05262,0.90101 c 0.57894,0.49555 1.19976,1.25622 1.37959,1.69037 0.17983,0.43415 0.52855,0.82589 0.77493,0.87052 0.41711,0.0756 0.41864,0.15992 0.0221,1.22505 l -0.42584,1.14389 -0.68186,-1.03036 c -0.61629,-0.93127 -0.63999,-1.05722 -0.24645,-1.30956 0.38876,-0.24928 0.34908,-0.38676 -0.37024,-1.28284 -0.83388,-1.03878 -1.59722,-1.6475 -1.79799,-1.43379 -0.0635,0.0676 -1.86095,3.97153 -3.99429,8.67536 l -3.87882,8.55243 1.65011,2.82465 c 1.89794,3.24889 6.8515,11.50808 6.9896,11.65393 0.25252,0.26668 2.47361,-0.29831 2.5479,-0.64813 0.0618,-0.29087 0.3479,-0.17136 1.12223,0.4687 l 1.03933,0.8591 -1.17162,0.28893 c -0.9973,0.24594 -1.1913,0.22741 -1.30391,-0.12451 -0.0966,-0.30181 -0.36259,-0.37764 -0.98527,-0.28089 l -0.85297,0.13253 4.96885,8.33437 4.96886,8.33438 8.91485,0.0697 8.91484,0.0697 v 0.65794 0.65794 h -22.88645 -22.88646 v -0.66146 z m -16.93333,-6.5023 c -2.38506,-0.26509 -8.26174,-1.2777 -8.4405,-1.45438 -0.0584,-0.0577 -0.23769,0.075 -0.39846,0.29489 -0.25208,0.34473 -0.41965,0.29306 -1.21679,-0.37517 -0.50845,-0.42623 -0.86046,-0.84066 -0.78223,-0.92095 0.0782,-0.0803 0.64377,-0.22619 1.25677,-0.32421 0.90964,-0.14546 1.11454,-0.10232 1.11454,0.23464 0,0.49037 0.21279,0.5608 3.30729,1.0946 7.94527,1.37055 17.78296,1.2696 25.03991,-0.25694 1.83869,-0.38678 2.438,-0.35303 1.92996,0.10869 -0.26209,0.23819 -2.17461,0.63695 -6.06778,1.26515 -2.90865,0.46933 -12.66222,0.67607 -15.74271,0.33368 z m 56.23375,-21.3451 c 0.20975,-0.69122 0.38264,-1.30111 0.38422,-1.35531 0.002,-0.0542 0.16822,0.0387 0.37032,0.20642 0.4583,0.38035 2.33847,-1.62107 5.64312,-6.00707 5.72032,-7.59209 10.28336,-16.46317 12.78592,-24.8573 0.38659,-1.29669 0.79175,-2.18202 0.99894,-2.18281 0.21011,-7.9e-4 0.29191,0.18259 0.20594,0.4617 -0.0784,0.25466 -0.39701,1.29646 -0.70793,2.3151 -2.96937,9.72842 -8.40494,19.56218 -15.5524,28.13667 -1.90431,2.28451 -2.41492,3.05492 -2.1381,3.226 0.26255,0.16227 0.0106,0.37608 -0.90616,0.76907 -0.69841,0.29937 -1.31379,0.5443 -1.36752,0.5443 -0.0537,0 0.0739,-0.56554 0.28365,-1.25677 z M 255.50956,147.16078 c -5.02933,-7.51087 -8.73528,-16.75524 -10.03931,-25.04275 -0.29946,-1.90315 -0.3924,-2.12426 -0.834,-1.9841 -0.53697,0.17043 -0.50209,-0.12643 0.21537,-1.83275 l 0.32872,-0.7818 0.69621,1.02457 c 0.79988,1.17713 0.85297,1.43089 0.29933,1.43089 -0.48633,0 -0.50109,-0.30902 0.14787,3.09543 0.62676,3.28801 1.69205,7.12965 2.9076,10.4854 1.15661,3.193 4.36727,9.5675 6.35279,12.61292 1.80339,2.76606 2.01464,3.175 1.6401,3.175 -0.13918,0 -0.91079,-0.98226 -1.71468,-2.18281 z m 6.14445,-28.51716 c 0,-0.2866 0.1785,-0.52086 0.39687,-0.52086 0.21829,0 0.39688,0.16586 0.39688,0.36857 0,0.20271 -0.17859,0.4371 -0.39688,0.52086 -0.26995,0.10359 -0.39687,-0.0143 -0.39687,-0.36857 z m -1.94776,-0.12399 c 0.0838,-0.21828 0.31815,-0.39687 0.52086,-0.39687 0.20271,0 0.36857,0.17859 0.36857,0.39687 0,0.21838 -0.23427,0.39688 -0.52087,0.39688 -0.35428,0 -0.47215,-0.12692 -0.36856,-0.39688 z m 3.79984,-0.40517 c 0,-0.2866 0.1785,-0.52087 0.39688,-0.52087 0.21828,0 0.39687,0.16586 0.39687,0.36857 0,0.20271 -0.17859,0.4371 -0.39687,0.52086 -0.26995,0.10359 -0.39688,-0.0143 -0.39688,-0.36856 z m -5.55625,-0.12399 c 0,-0.21828 0.1786,-0.39688 0.39688,-0.39688 0.21828,0 0.39687,0.1786 0.39687,0.39688 0,0.21828 -0.17859,0.39687 -0.39687,0.39687 -0.21828,0 -0.39688,-0.17859 -0.39688,-0.39687 z m 7.17261,-0.75898 c -0.23588,-0.28422 -0.24075,-0.43298 -0.0187,-0.57025 0.43151,-0.26669 0.96685,0.32571 0.61358,0.67898 -0.19134,0.19134 -0.37353,0.15805 -0.59493,-0.10873 z m -8.87387,-0.13708 c -0.0797,-0.12904 0.0165,-0.36863 0.21386,-0.53243 0.26956,-0.22372 0.43287,-0.20866 0.65625,0.0605 0.16357,0.19708 0.21905,0.43667 0.1233,0.53243 -0.24959,0.24959 -0.82336,0.21464 -0.99341,-0.0605 z m -1.037,-1.47672 c -0.18659,-0.48626 0.30948,-0.8233 0.67451,-0.45826 0.28242,0.28242 0.0793,0.84666 -0.3048,0.84666 -0.12137,0 -0.28773,-0.17478 -0.36971,-0.3884 z m 11.05839,0.10077 c -0.0978,-0.15821 -0.074,-0.39137 0.0527,-0.51815 0.31292,-0.31292 1.00161,0.14258 0.77354,0.51162 -0.23113,0.37397 -0.5974,0.37686 -0.82628,0.007 z m 2.40843,-0.28685 -1.0454,-0.55109 1.17769,-0.6038 c 1.12339,-0.57595 1.18154,-0.58087 1.26119,-0.10667 0.0754,0.4492 0.39427,0.50513 3.3073,0.58021 l 3.22379,0.0831 -3.24115,0.0572 c -3.04569,0.0538 -3.24114,0.0891 -3.24114,0.58638 0,0.65117 -0.12876,0.64712 -1.44228,-0.0453 z m -8.83413,-1.19305 c -0.0303,-0.60308 -0.18546,-0.86545 -0.54747,-0.92604 -0.48807,-0.0817 -0.48552,-0.12278 0.0756,-1.21711 l 0.58077,-1.13256 0.58237,1.19871 c 0.56231,1.1574 0.56484,1.1987 0.0734,1.1987 -0.37593,0 -0.53685,0.22475 -0.61567,0.8599 l -0.10672,0.85989 z m 2.64583,0 c -0.0303,-0.60308 -0.18546,-0.86545 -0.54746,-0.92604 -0.48808,-0.0817 -0.48552,-0.12278 0.0756,-1.21711 l 0.58077,-1.13256 0.58237,1.19871 c 0.56231,1.1574 0.56484,1.1987 0.0734,1.1987 -0.37593,0 -0.53685,0.22475 -0.61567,0.8599 l -0.10671,0.85989 z m 4.78631,0.005 c -0.46525,-0.18773 -0.41316,-0.88311 0.0661,-0.88311 0.22049,0 0.39688,0.23519 0.39688,0.52917 0,0.29104 -0.0298,0.51976 -0.0662,0.50827 -0.0364,-0.0115 -0.21497,-0.0809 -0.39687,-0.15433 z m -12.7194,-0.53045 c 0.12873,-0.66378 0.747,-0.75493 0.747,-0.11012 0,0.32499 -0.17084,0.55121 -0.41627,0.55121 -0.24639,0 -0.38137,-0.18001 -0.33073,-0.44109 z m 106.05117,-0.35266 c 0,-0.52434 0.17639,-0.52917 19.31458,-0.52917 18.21958,0 19.31442,-0.0262 19.31164,-0.46302 -0.009,-1.4134 -1.0752,-17.372062 -1.16675,-17.463613 -0.0601,-0.06008 -0.66382,0.13607 -1.34163,0.435899 -0.95021,0.420319 -1.19865,0.65257 -1.08501,1.014296 0.10883,0.346416 -0.1385,0.632851 -0.94543,1.094901 l -1.09281,0.62575 0.17145,-0.857261 c 0.0943,-0.471492 0.17146,-1.086418 0.17146,-1.366501 0,-0.394988 0.0977,-0.454578 0.43536,-0.265602 0.31089,0.173985 0.69162,0.06974 1.3317,-0.364635 0.49299,-0.33455 1.25991,-0.688126 1.70426,-0.785723 l 0.80792,-0.177448 -0.14979,-1.49529 c -0.0824,-0.82241 -0.34589,-4.948102 -0.58556,-9.168206 l -0.43577,-7.672916 -4.76316,-9.789583 c -2.61974,-5.384271 -4.84756,-9.88338 -4.95073,-9.998022 -0.186,-0.206697 -1.98171,1.623822 -2.55747,2.607059 -0.16484,0.281488 -0.38197,0.433565 -0.48253,0.337947 -0.30562,-0.290602 0.55347,-1.661798 1.67723,-2.677054 l 1.06156,-0.959054 -3.16109,-6.493673 c -1.73861,-3.57152 -3.1611,-6.613576 -3.1611,-6.760124 0,-0.922814 0.80708,0.479074 3.66939,6.373647 2.73555,5.633532 3.29341,6.609357 3.68007,6.437288 0.25066,-0.111548 0.97635,-0.255243 1.61264,-0.31932 0.84296,-0.08489 1.19164,-0.249407 1.28496,-0.606266 0.11526,-0.440748 0.23227,-0.406025 1.16931,0.347001 l 1.04123,0.836758 -1.13557,0.339661 c -1.46463,0.438087 -1.54842,0.432588 -1.34846,-0.08848 0.14526,-0.37856 10e-4,-0.417459 -1.08965,-0.294489 -0.69136,0.07793 -1.35342,0.24444 -1.47124,0.370028 -0.21321,0.227261 9.14789,19.642869 9.63765,19.989208 0.14131,0.09993 0.50022,4.31319 0.79758,9.362789 l 0.54063,9.181089 1.39432,0.356571 c 1.62758,0.416226 2.97131,1.062852 2.97131,1.429856 0,0.357846 -0.14485,0.329628 -1.27962,-0.249288 -0.54668,-0.278892 -1.4349,-0.589801 -1.97383,-0.690904 -0.94457,-0.177202 -0.97991,-0.156541 -0.98045,0.573223 -7.9e-4,1.222983 0.78276,14.386881 0.94681,15.904441 l 0.15016,1.38906 h 3.02367 c 2.84728,0 3.02367,0.0309 3.02367,0.52917 0,0.52509 -0.17639,0.52917 -22.88645,0.52917 -22.71007,0 -22.88646,-0.004 -22.88646,-0.52917 z m -106.3625,-1.60955 c 0,-0.6448 0.61827,-0.55366 0.747,0.11012 0.0506,0.26108 -0.0843,0.4411 -0.33073,0.4411 -0.24543,0 -0.41627,-0.22622 -0.41627,-0.55122 z m 12.96458,0.17374 c 0,-0.24543 0.22622,-0.41627 0.55121,-0.41627 0.64481,0 0.55366,0.61827 -0.11012,0.747 -0.26108,0.0506 -0.44109,-0.0843 -0.44109,-0.33073 z m -43.92083,-1.73172 c 0,-0.49028 0.21859,-0.52614 3.62954,-0.59532 l 3.62955,-0.0736 2.96877,-6.48229 c 1.63283,-3.565259 2.97597,-6.601353 2.98476,-6.746874 0.0229,-0.378558 -2.61796,-2.287188 -2.91263,-2.105075 -0.13912,0.08598 -0.24583,-0.434491 -0.24583,-1.19907 v -1.351 l 1.05358,0.846677 c 0.93334,0.750057 1.00396,0.882952 0.61881,1.164577 -0.38386,0.280691 -0.31417,0.399841 0.59535,1.017876 0.56655,0.384984 1.10316,0.699974 1.19245,0.699974 0.0893,0 2.15798,-4.392909 4.59708,-9.762019 3.21605,-7.079374 4.54605,-9.745683 4.8398,-9.702569 0.25377,0.03725 1.67309,2.856918 3.79977,7.548758 1.86708,4.119117 3.42824,7.521979 3.46924,7.561915 0.21306,0.207524 2.91922,-0.538728 3.03349,-0.83652 0.0975,-0.254066 0.3779,-0.153685 1.03478,0.370446 1.09027,0.869924 1.11021,1.00747 0.17347,1.196512 -0.40019,0.08076 -0.9449,0.23087 -1.21048,0.333579 -0.33835,0.130855 -0.45767,0.07701 -0.39867,-0.179906 0.0996,-0.433607 -0.0459,-0.498946 -1.11114,-0.498946 -0.44113,0 -0.86279,0.158274 -0.93702,0.351721 -0.0742,0.193445 1.14219,3.170007 2.70317,6.614583 2.1891,4.830671 2.94792,6.262861 3.31827,6.262861 0.5078,0 0.67383,0.68509 0.20399,0.8417 -0.15848,0.0528 0.12679,0.96417 0.66947,2.13872 l 0.94562,2.04666 h 3.69615 c 3.51977,0 3.69616,0.0252 3.69616,0.52917 0,0.52511 -0.17639,0.52917 -23.01875,0.52917 -22.73255,0 -23.01875,-0.006 -23.01875,-0.5217 z m 37.0562,-1.67359 c -1.83154,-4.19821 -7.23065,-15.968823 -7.40678,-16.147544 -0.30488,-0.309351 -2.00268,1.250463 -2.39683,2.202031 -0.18111,0.437232 -0.43391,0.794968 -0.56178,0.794968 -0.71582,0 0.4259,-2.013048 1.77016,-3.121099 l 0.90486,-0.745866 -3.1616,-6.935999 c -1.73888,-3.814799 -3.24102,-7.064515 -3.3381,-7.221587 -0.13641,-0.220716 -6.07361,12.418326 -8.1983,17.452426 l -0.37271,0.883081 1.96581,-0.08204 c 1.08119,-0.04512 2.04142,-0.0064 2.13384,0.08599 0.23173,0.231735 -2.4537,0.741373 -3.5285,0.669634 l -0.87643,-0.0585 -2.85072,6.245135 c -1.56789,3.43483 -2.92652,6.44271 -3.01918,6.68417 -0.15575,0.40588 0.94881,0.43783 14.62646,0.42313 l 14.79493,-0.0159 -0.48513,-1.112 z m -5.14084,-0.13245 c -0.23251,-0.37621 0.2262,-0.83125 0.60312,-0.5983 0.19671,0.12158 0.27583,0.35341 0.17584,0.51521 -0.21247,0.34378 -0.59277,0.38434 -0.77896,0.0831 z m 1.18591,-1.47456 c -0.23939,-0.28844 -0.20844,-0.40685 0.14142,-0.5411 0.60784,-0.23325 1.00651,0.21196 0.538,0.60079 -0.28824,0.23921 -0.44261,0.22565 -0.67942,-0.0597 z m 1.47814,-1.1294 c -0.24692,-0.24692 0.0515,-0.62455 0.49349,-0.62455 0.2097,0 0.38126,0.17859 0.38126,0.39687 0,0.39853 -0.55853,0.5439 -0.87475,0.22768 z m 8.54767,2.69835 c 0,-0.54696 0.54847,-0.80936 0.80937,-0.38722 0.13294,0.21511 0.0948,0.4379 -0.0957,0.55901 -0.48101,0.30578 -0.71364,0.24978 -0.71364,-0.17179 z m -1.15755,-1.41731 c -0.0718,-0.11609 -0.0242,-0.38298 0.10566,-0.5931 0.17847,-0.28877 0.31067,-0.30746 0.54157,-0.0766 0.168,0.168 0.22547,0.4349 0.12769,0.5931 -0.20893,0.33805 -0.59004,0.37571 -0.77492,0.0766 z m -1.41038,-1.0637 c -0.20309,-0.12551 -0.22965,-0.33178 -0.075,-0.58208 0.19081,-0.30875 0.30648,-0.3208 0.56811,-0.0592 0.39459,0.39458 -0.02,0.93367 -0.49316,0.64124 z m -2.19457,-0.97418 c 0,-0.2456 0.24896,-0.39688 0.65316,-0.39688 0.47187,0 0.61088,0.11015 0.50085,0.39688 -0.0838,0.21828 -0.37768,0.39687 -0.65315,0.39687 -0.27547,0 -0.50086,-0.17859 -0.50086,-0.39687 z m -5.92472,-35.275922 c -0.19921,-0.32232 3.3287,-4.927504 6.30163,-8.22589 2.62516,-2.912541 6.69804,-6.720908 10.07413,-9.419879 2.0337,-1.625812 8.24162,-5.88658 9.56776,-6.56678 0.63222,-0.324272 0.80238,-0.559588 0.69675,-0.963523 -0.12532,-0.479234 -0.0135,-0.534465 1.08172,-0.534465 0.67181,0 1.22148,0.05273 1.22148,0.117168 0,0.06444 -0.24989,0.540692 -0.5553,1.058333 -0.57774,0.979189 -0.91244,1.168167 -1.09562,0.618612 -0.1396,-0.418793 -2.79425,1.155526 -6.95236,4.123042 -7.25685,5.178982 -13.63635,11.383152 -18.4691,17.961489 -1.5525,2.113267 -1.64265,2.201527 -1.87109,1.831893 z m 119.7617,-0.658341 c -1.05446,-0.515938 -1.45938,-0.975114 -0.8599,-0.975114 0.73259,0 0.0979,-0.989251 -3.14063,-4.894792 -3.66957,-4.425412 -7.57479,-8.086507 -12.33749,-11.566226 -4.639,-3.389343 -10.90467,-6.835337 -15.60981,-8.585091 -1.09174,-0.405998 -1.98498,-0.884556 -1.98498,-1.063464 0,-0.378602 0.65132,-0.175948 4.32227,1.344846 10.75606,4.455985 21.17019,12.668171 28.477,22.455867 0.82481,1.104855 1.26655,1.487559 1.59626,1.382913 0.37319,-0.118443 0.48668,0.08019 0.62582,1.095323 0.0935,0.682003 0.1398,1.266092 0.10295,1.297971 -0.0369,0.03188 -0.57303,-0.189624 -1.19149,-0.492233 z m -82.88073,-3.488656 v -0.661458 h 18.93554 c 17.91017,0 18.92804,-0.02508 18.79717,-0.463021 -0.0761,-0.254661 -1.16569,-4.153958 -2.4213,-8.665103 -1.2556,-4.511146 -2.34197,-8.261211 -2.41415,-8.333478 -0.14426,-0.144438 -1.63227,1.455165 -2.10842,2.266533 -0.16483,0.280882 -0.38284,0.431595 -0.48445,0.334918 -0.27394,-0.260618 0.31924,-1.273888 1.446,-2.470056 l 0.99692,-1.058334 -2.27404,-8.144631 c -1.38178,-4.948956 -2.39043,-8.115267 -2.57068,-8.069791 -0.16316,0.04116 -3.6441,2.687477 -7.73543,5.8807 -8.25587,6.443585 -8.02862,6.138389 -5.09035,6.836354 0.73005,0.173418 1.32736,0.421408 1.32736,0.55109 0,0.360515 -2.03751,-0.04529 -3.19675,-0.636692 l -1.03153,-0.526244 -6.15409,4.805152 c -3.38475,2.642834 -6.30797,4.925626 -6.49603,5.072873 -0.20416,0.159845 -0.43373,0.170959 -0.56973,0.02758 -0.13236,-0.139541 2.47429,-2.342883 6.22234,-5.259596 6.18973,-4.816821 6.43392,-5.041125 6.04865,-5.55625 -0.22081,-0.295237 -0.59309,-0.983279 -0.8273,-1.528982 -0.23421,-0.545703 -0.58637,-0.992187 -0.78257,-0.992187 -0.19621,0 -0.35674,-0.05549 -0.35674,-0.123315 0,-0.286887 0.90601,-1.993352 1.05833,-1.993352 0.33427,0 1.11258,1.966293 0.81727,2.064729 -0.49604,0.165348 -0.31583,1.036724 0.38721,1.872238 l 0.67532,0.802567 7.94683,-6.206225 c 4.37076,-3.413424 8.0257,-6.204402 8.12208,-6.202173 0.55416,0.01281 0.93636,1.072737 2.81298,7.801156 1.13644,4.074583 2.17696,7.804862 2.31226,8.289509 0.19003,0.680654 0.34721,0.839578 0.69072,0.698374 0.24459,-0.100541 0.96638,-0.246429 1.60398,-0.324195 0.8228,-0.100355 1.19575,-0.280897 1.28496,-0.622039 0.11181,-0.427536 0.24103,-0.387959 1.16949,0.35817 1.13505,0.912148 1.10403,0.967647 -0.76919,1.376405 -0.74454,0.162465 -0.83615,0.126372 -0.68422,-0.269559 0.15527,-0.40462 0.031,-0.440863 -1.0816,-0.315456 -0.69137,0.07793 -1.37546,0.260115 -1.5202,0.404863 -0.22918,0.229176 1.78617,7.969575 4.30427,16.531531 l 0.52525,1.785937 h 3.42838 3.42838 v 0.661458 0.661459 h -22.88646 -22.88646 z"
         id="path31"
         inkscape:connector-curvature="0" />
      <path
         style="fill:#31839a;stroke-width:0.26458332"
         d="m 241.01651,188.76651 c 0,-0.50162 0.17639,-0.52917 3.38771,-0.52917 h 3.38771 l 2.69862,-9.68108 c 1.48424,-5.32459 2.62298,-9.80347 2.53053,-9.95305 -0.15682,-0.25374 -0.7024,-0.22384 -3.27332,0.17939 l -0.92604,0.14524 0.79375,-0.38748 c 0.43656,-0.21312 1.47377,-0.39286 2.30491,-0.39942 l 1.51115,-0.0119 0.29861,-1.12448 c 0.16424,-0.61847 1.12133,-4.06465 2.12687,-7.65818 1.00554,-3.59353 1.82825,-6.58712 1.82825,-6.65242 0,-0.0653 0.1813,-0.1883 0.4029,-0.27333 0.26275,-0.10083 3.23085,2.05057 8.53281,6.18493 l 8.12991,6.33954 0.19228,-0.9118 c 0.10575,-0.50149 0.0914,-1.45198 -0.032,-2.1122 -0.12334,-0.66022 -0.12284,-1.2004 10e-4,-1.2004 0.38366,0 0.57461,1.29389 0.44264,2.99933 l -0.12621,1.63088 6.30952,4.89165 c 5.28992,4.10113 6.91664,5.55939 6.20167,5.55939 -0.0593,0 -2.93261,-2.20265 -6.38504,-4.89479 -3.45242,-2.69213 -6.35066,-4.89332 -6.44053,-4.89151 -0.0899,0.002 -0.43238,0.41852 -0.76114,0.92604 -0.32876,0.50752 -0.71571,0.92276 -0.85989,0.92276 -0.14419,0 -0.26216,0.23813 -0.26216,0.52917 0,0.55414 -0.43089,0.65455 -1.53729,0.35824 l -0.61126,-0.16371 0.72227,-0.75389 c 0.51905,-0.54177 0.81362,-0.67806 1.04698,-0.48439 0.23605,0.1959 0.54799,-0.001 1.14243,-0.72254 0.44974,-0.54562 0.72992,-1.06671 0.62261,-1.15797 -1.60344,-1.36372 -15.72546,-12.19296 -15.80138,-12.11703 -0.0576,0.0576 -1.04542,3.45891 -2.19508,7.55841 l -2.09029,7.45364 0.71681,0.29692 c 0.39425,0.1633 1.10402,0.6964 1.57727,1.18467 0.47346,0.4885 1.02456,0.82478 1.22536,0.74773 0.2788,-0.10699 0.36491,0.15849 0.36491,1.12503 v 1.26505 l -0.72761,-0.63747 c -0.40018,-0.35061 -0.84567,-0.73351 -0.98997,-0.85089 -0.16643,-0.13537 -0.12427,-0.29877 0.11528,-0.44682 0.31155,-0.19255 0.31754,-0.30582 0.0342,-0.64724 -0.56914,-0.68577 -2.15969,-1.56247 -2.38335,-1.31368 -0.21669,0.24103 -5.30896,18.32152 -5.30896,18.84985 0,0.2206 4.99944,0.29984 18.91771,0.29984 18.74132,0 18.91771,0.005 18.91771,0.52917 0,0.52508 -0.17639,0.52916 -22.88646,0.52916 -22.71007,0 -22.88646,-0.004 -22.88646,-0.52916 z m 85.98958,-0.52677 c 0,-0.51817 0.21985,-0.52788 13.48335,-0.59531 l 13.48335,-0.0685 -4.88458,-8.20208 c -2.68652,-4.51115 -5.00182,-8.24119 -5.14512,-8.28899 -0.47046,-0.15694 -1.90399,1.07064 -2.68096,2.29579 -0.7892,1.24445 -1.05349,1.10609 -0.37893,-0.19837 0.40932,-0.79153 2.11168,-2.40739 2.53627,-2.40739 0.14045,0 0.25537,-0.10522 0.25537,-0.23383 0,-0.1286 -1.91028,-3.43258 -4.24507,-7.34218 -2.91701,-4.88453 -4.20281,-7.27391 -4.10997,-7.63753 0.0743,-0.29104 1.91311,-4.42617 4.08623,-9.18917 l 3.95113,-8.65999 -0.96564,-0.26822 c -0.5311,-0.14751 -1.47165,-0.26888 -2.09011,-0.26968 -0.66441,-8e-4 -1.12448,-0.12488 -1.12448,-0.30308 0,-0.3004 1.7428,-0.21555 3.57956,0.17427 l 0.80143,0.17009 3.54682,-7.82659 c 3.16933,-6.99361 3.97844,-8.52469 3.97844,-7.52846 0,0.16397 -1.55874,3.73586 -3.46385,7.93752 l -3.46385,7.63938 1.18458,1.15128 c 0.65151,0.63321 1.26577,1.4071 1.36501,1.71978 0.0992,0.31267 0.351,0.5685 0.55948,0.5685 0.45819,0 0.46482,0.40448 0.0236,1.43865 l -0.3316,0.77721 -0.63513,-0.89196 c -0.42584,-0.59803 -0.5306,-0.92679 -0.31792,-0.99768 0.17446,-0.0582 0.31721,-0.27407 0.31721,-0.4798 0,-0.46584 -1.80376,-2.49226 -2.21841,-2.49226 -0.16761,0 -2.06132,3.87257 -4.20825,8.60571 -3.44238,7.58915 -3.86646,8.67523 -3.59003,9.19427 0.17239,0.32371 2.12645,3.62655 4.34234,7.33965 l 4.02889,6.75108 1.2196,-0.097 c 0.82249,-0.0654 1.21961,-0.21755 1.21961,-0.46723 0,-0.52405 0.28083,-0.46064 1.19062,0.26883 0.91976,0.73746 0.87771,0.83614 -0.46302,1.08658 -0.81269,0.15181 -0.99219,0.10821 -0.99219,-0.24099 0,-0.43908 -0.57907,-0.52698 -1.37867,-0.20928 -0.38048,0.15117 0.35736,1.53994 4.62896,8.71265 l 5.08159,8.53281 h 8.79865 c 8.62225,0 8.79864,0.0106 8.79864,0.52917 0,0.52509 -0.17639,0.52917 -22.88646,0.52917 -22.67527,0 -22.88646,-0.005 -22.88646,-0.52677 z m -16.93333,-6.63699 c -2.38506,-0.26509 -8.26174,-1.2777 -8.4405,-1.45438 -0.0584,-0.0577 -0.23769,0.075 -0.39846,0.29489 -0.25208,0.34473 -0.41965,0.29306 -1.21679,-0.37517 -0.50845,-0.42623 -0.86046,-0.84066 -0.78223,-0.92095 0.0782,-0.0803 0.64377,-0.22619 1.25677,-0.32421 0.90964,-0.14546 1.11454,-0.10232 1.11454,0.23464 0,0.49037 0.21279,0.5608 3.30729,1.0946 7.94527,1.37055 17.78296,1.2696 25.03991,-0.25694 1.83869,-0.38678 2.438,-0.35303 1.92996,0.10869 -0.26209,0.23819 -2.17461,0.63695 -6.06778,1.26515 -2.90865,0.46933 -12.66222,0.67607 -15.74271,0.33368 z m 56.23375,-21.3451 c 0.20975,-0.69122 0.38264,-1.30111 0.38422,-1.35531 0.002,-0.0542 0.16822,0.0387 0.37032,0.20642 0.4583,0.38035 2.33847,-1.62107 5.64312,-6.00707 5.72032,-7.59209 10.28336,-16.46317 12.78592,-24.8573 0.38659,-1.29669 0.79175,-2.18202 0.99894,-2.18281 0.21011,-7.9e-4 0.29191,0.18259 0.20594,0.4617 -0.0784,0.25466 -0.39701,1.29646 -0.70793,2.3151 -2.96937,9.72842 -8.40494,19.56218 -15.5524,28.13667 -1.90431,2.28451 -2.41492,3.05492 -2.1381,3.226 0.26255,0.16227 0.0106,0.37608 -0.90616,0.76907 -0.69841,0.29937 -1.31379,0.5443 -1.36752,0.5443 -0.0537,0 0.0739,-0.56554 0.28365,-1.25677 z M 255.50956,147.16078 c -5.02933,-7.51087 -8.73528,-16.75524 -10.03931,-25.04275 -0.29946,-1.90315 -0.3924,-2.12426 -0.834,-1.9841 -0.53697,0.17043 -0.50209,-0.12643 0.21537,-1.83275 l 0.32872,-0.7818 0.69621,1.02457 c 0.79988,1.17713 0.85297,1.43089 0.29933,1.43089 -0.48633,0 -0.50109,-0.30902 0.14787,3.09543 0.62676,3.28801 1.69205,7.12965 2.9076,10.4854 1.15661,3.193 4.36727,9.5675 6.35279,12.61292 1.80339,2.76606 2.01464,3.175 1.6401,3.175 -0.13918,0 -0.91079,-0.98226 -1.71468,-2.18281 z m 4.29237,-28.64115 c 0,-0.21828 0.17859,-0.39687 0.39687,-0.39687 0.21828,0 0.39688,0.17859 0.39688,0.39687 0,0.21829 -0.1786,0.39688 -0.39688,0.39688 -0.21828,0 -0.39687,-0.17859 -0.39687,-0.39688 z m 1.85208,-0.022 c 0,-0.46723 0.56958,-0.38586 0.73312,0.10474 0.0576,0.1728 -0.0838,0.31419 -0.3142,0.31419 -0.2304,-1e-5 -0.41892,-0.18853 -0.41892,-0.41893 z m 1.89901,-0.25743 c 0.0942,-0.45257 0.55309,-0.56629 0.68524,-0.16984 0.0462,0.13851 -0.10833,0.32562 -0.34333,0.4158 -0.29477,0.11311 -0.40081,0.0368 -0.34191,-0.24596 z m -5.60318,-0.24969 c 0,-0.21828 0.1786,-0.39688 0.39688,-0.39688 0.21828,0 0.39687,0.1786 0.39687,0.39688 0,0.21828 -0.17859,0.39687 -0.39687,0.39687 -0.21828,0 -0.39688,-0.17859 -0.39688,-0.39687 z m -1.41111,-0.83785 c -0.30444,-0.30444 -0.19268,-0.61736 0.22049,-0.61736 0.21828,0 0.39687,0.17859 0.39687,0.39687 0,0.41317 -0.31292,0.52493 -0.61736,0.22049 z m 8.43971,-0.0605 c -0.0805,-0.13027 0.0199,-0.30066 0.2231,-0.37864 0.38795,-0.14888 0.6858,0.0227 0.6858,0.39501 0,0.29548 -0.72423,0.28243 -0.9089,-0.0164 z m 1.36811,-1.24422 c -0.23851,-0.2385 0.0899,-0.91907 0.36227,-0.75074 0.13027,0.0805 0.23686,0.31795 0.23686,0.52764 0,0.38963 -0.31523,0.50701 -0.59913,0.2231 z m 2.33185,-0.41632 -1.0454,-0.55109 1.17769,-0.6038 c 1.12339,-0.57595 1.18154,-0.58087 1.26119,-0.10667 0.0754,0.4492 0.39427,0.50513 3.3073,0.58021 l 3.22379,0.0831 -3.24115,0.0572 c -3.04569,0.0538 -3.24114,0.0891 -3.24114,0.58638 0,0.65117 -0.12876,0.64712 -1.44228,-0.0453 z m -13.48955,0.073 c -0.0805,-0.13027 0.0199,-0.30066 0.2231,-0.37864 0.38796,-0.14888 0.68581,0.0227 0.68581,0.39501 0,0.29548 -0.72424,0.28243 -0.90891,-0.0164 z m 4.65542,-1.26609 c -0.0303,-0.60308 -0.18546,-0.86545 -0.54747,-0.92604 -0.48807,-0.0817 -0.48552,-0.12278 0.0756,-1.21711 l 0.58077,-1.13256 0.58237,1.19871 c 0.56231,1.1574 0.56484,1.1987 0.0734,1.1987 -0.37593,0 -0.53685,0.22475 -0.61567,0.8599 l -0.10672,0.85989 z m 2.64583,0 c -0.0303,-0.60308 -0.18546,-0.86545 -0.54746,-0.92604 -0.48808,-0.0817 -0.48552,-0.12278 0.0756,-1.21711 l 0.58077,-1.13256 0.58237,1.19871 c 0.56231,1.1574 0.56484,1.1987 0.0734,1.1987 -0.37593,0 -0.53685,0.22475 -0.61567,0.8599 l -0.10671,0.85989 z m -7.97984,-0.45938 c 0,-0.2304 0.18852,-0.41892 0.41892,-0.41892 0.23041,0 0.3718,0.14139 0.3142,0.31419 -0.16354,0.4906 -0.73312,0.57197 -0.73312,0.10473 z m 12.48613,0.0904 c 0.0521,-0.15643 0.20792,-0.28442 0.34616,-0.28442 0.13825,0 0.29402,0.12799 0.34616,0.28442 0.0521,0.15644 -0.10362,0.28443 -0.34616,0.28443 -0.24253,0 -0.39831,-0.12799 -0.34616,-0.28443 z m 93.61179,-0.50932 c 0,-0.52434 0.17639,-0.52917 19.31458,-0.52917 18.21958,0 19.31442,-0.0262 19.31164,-0.46302 -0.009,-1.45277 -1.07653,-17.373395 -1.17101,-17.467873 -0.1704,-0.170397 -1.79442,0.428562 -2.39663,0.883904 -0.44613,0.33732 -0.4678,0.436269 -0.13996,0.638887 0.21336,0.131863 0.33184,0.290613 0.2633,0.35278 -0.26073,0.236455 -1.89683,1.009152 -1.96375,0.927441 -0.0386,-0.04711 -0.0136,-0.539549 0.0555,-1.094306 0.0936,-0.751549 0.22503,-0.9705 0.51564,-0.858983 0.21451,0.08232 0.70664,-0.07234 1.09361,-0.343686 0.38697,-0.271346 1.1603,-0.641554 1.7185,-0.822682 l 1.01491,-0.329329 -0.14956,-1.493335 c -0.0822,-0.821336 -0.34566,-4.946147 -0.58533,-9.166251 l -0.43577,-7.672916 -4.76316,-9.789583 c -2.61974,-5.384271 -4.84196,-9.877776 -4.93827,-9.985568 -0.29202,-0.326816 -1.35413,0.590156 -2.16555,1.869623 -0.59942,0.945187 -0.76614,1.081468 -0.76614,0.626242 0,-0.337031 0.54406,-1.146294 1.29307,-1.92338 l 1.29307,-1.341538 -3.14515,-6.460925 c -1.72984,-3.553508 -3.14516,-6.580827 -3.14516,-6.727375 0,-0.922814 0.80708,0.479074 3.66939,6.373647 2.71555,5.592352 3.29623,6.610146 3.68007,6.450255 0.25066,-0.104415 1.0213,-0.250108 1.71252,-0.323762 0.82394,-0.0878 1.25677,-0.259009 1.25677,-0.497131 0,-0.199766 0.0893,-0.35945 0.19844,-0.354851 0.26603,0.01122 1.74081,1.317103 1.61803,1.432742 -0.0532,0.05008 -0.54316,0.212968 -1.08887,0.361979 -0.88752,0.24235 -0.99218,0.219115 -0.99218,-0.220276 0,-0.41833 -0.1472,-0.468585 -0.99219,-0.338741 -2.14353,0.32938 -2.23047,-0.08809 1.62839,7.819469 5.90847,12.107618 6.10252,12.494164 6.36744,12.683966 0.14123,0.101176 0.49511,4.346675 0.7864,9.434437 l 0.52962,9.250481 1.014,0.162142 c 1.19612,0.19127 3.36634,1.1639 3.36634,1.508702 0,0.132453 -0.46533,0.0034 -1.03406,-0.28671 -0.56873,-0.290145 -1.52123,-0.605438 -2.11666,-0.700654 -1.05632,-0.168913 -1.08263,-0.154623 -1.08318,0.588304 -7.9e-4,1.226259 0.78243,14.388224 0.94681,15.908814 l 0.15016,1.38906 h 3.02367 c 2.84728,0 3.02367,0.0309 3.02367,0.52917 0,0.52509 -0.17639,0.52917 -22.88645,0.52917 -22.71007,0 -22.88646,-0.004 -22.88646,-0.52917 z m -106.3625,-1.46351 c 0,-0.21372 0.17859,-0.38857 0.39687,-0.38857 0.21828,0 0.39688,0.10632 0.39688,0.23627 0,0.12996 -0.1786,0.30481 -0.39688,0.38857 -0.24175,0.0928 -0.39687,5.3e-4 -0.39687,-0.23627 z m 13.13348,0.008 c 0.0838,-0.21828 0.25862,-0.39688 0.38857,-0.39688 0.12995,0 0.23628,0.1786 0.23628,0.39688 0,0.21828 -0.17486,0.39687 -0.38857,0.39687 -0.2367,0 -0.32905,-0.15512 -0.23628,-0.39687 z m -44.08973,-1.71233 c 0,-0.49026 0.21858,-0.52614 3.62682,-0.59532 l 3.62682,-0.0736 1.69061,-3.70416 c 0.92984,-2.0373 2.32635,-5.10399 3.10335,-6.814869 l 1.41273,-3.110698 -0.76937,-0.397857 c -0.42315,-0.218821 -1.00428,-0.650007 -1.29139,-0.958188 -0.30318,-0.325422 -0.69463,-0.494102 -0.93372,-0.402355 -0.33468,0.128429 -0.41169,-0.06318 -0.41169,-1.024339 0,-0.650277 0.0968,-1.182323 0.21509,-1.182323 0.11829,0 0.54469,0.344041 0.94755,0.764532 0.53355,0.556909 0.63681,0.804273 0.38023,0.910868 -0.24439,0.101531 -0.0718,0.394015 0.56381,0.95526 0.50382,0.444907 1.051,0.808924 1.21595,0.808924 0.16496,0 2.29554,-4.392909 4.73464,-9.762019 3.22173,-7.091891 4.54577,-9.745723 4.84068,-9.702439 0.25511,0.03744 1.68,2.87239 3.83481,7.62973 l 3.42886,7.570152 1.36242,-0.148425 c 0.74933,-0.08164 1.49482,-0.313021 1.65665,-0.514192 0.24594,-0.305755 0.40874,-0.275688 0.99218,0.183248 0.93412,0.734777 0.88302,0.928439 -0.32595,1.23531 -0.95476,0.242343 -1.01452,0.223912 -0.88461,-0.272841 0.12906,-0.493535 0.0535,-0.519033 -1.0266,-0.346463 -0.64125,0.102452 -1.23891,0.269478 -1.32813,0.37117 -0.0892,0.10169 1.15364,3.072159 2.76189,6.601039 2.25174,4.940825 3.0343,6.416145 3.40336,6.416145 0.50715,0 0.67251,0.68524 0.20311,0.8417 -0.15848,0.0528 0.12679,0.96417 0.66947,2.13872 l 0.94562,2.04666 h 3.56386 c 3.38747,0 3.56386,0.0262 3.56386,0.52917 0,0.52509 -0.17639,0.52917 -22.88646,0.52917 -22.60088,0 -22.88645,-0.007 -22.88645,-0.5217 z m 37.05758,-1.67038 c -2.11797,-4.85499 -7.24558,-15.983942 -7.46246,-16.196464 -0.31292,-0.306646 -2.60762,2.057943 -2.60762,2.687045 0,0.212791 -0.11863,0.313579 -0.26362,0.223972 -0.39363,-0.243276 0.36772,-1.546539 1.58903,-2.720085 l 1.05401,-1.012791 -3.16214,-6.937197 c -1.73918,-3.815458 -3.24195,-7.066322 -3.33949,-7.224138 -0.0975,-0.157819 -2.05909,3.863213 -4.35901,8.935627 -3.89876,8.598614 -4.14672,9.23891 -3.66499,9.464145 0.31654,0.148003 1.08226,0.139062 1.97682,-0.02307 0.80307,-0.145563 1.51702,-0.172616 1.58655,-0.06012 0.1306,0.211312 -1.27584,0.455531 -3.28185,0.569878 l -1.14907,0.06549 -2.84266,6.245138 c -1.56347,3.43483 -2.91832,6.44228 -3.01078,6.68322 -0.15526,0.40459 0.96312,0.43719 14.62783,0.42633 l 14.79595,-0.0118 -0.4865,-1.1152 z m -5.16399,-0.17089 c -0.19567,-0.3166 0.30205,-0.6303 0.65447,-0.41249 0.2959,0.18287 0.10165,0.65879 -0.2689,0.65879 -0.12834,0 -0.30185,-0.11084 -0.38557,-0.2463 z m 1.23004,-1.62563 c 0.0521,-0.15643 0.20791,-0.28442 0.34616,-0.28442 0.13824,0 0.29402,0.12799 0.34616,0.28442 0.0521,0.15644 -0.10363,0.28443 -0.34616,0.28443 -0.24254,0 -0.39831,-0.12799 -0.34616,-0.28443 z m 1.53678,-1.17078 c 0,-0.21828 0.1786,-0.39687 0.39688,-0.39687 0.21828,0 0.39687,0.17859 0.39687,0.39687 0,0.21828 -0.17859,0.39688 -0.39687,0.39688 -0.21828,0 -0.39688,-0.1786 -0.39688,-0.39688 z m 8.59896,3.04271 c -0.10561,-0.17088 -0.073,-0.42975 0.0726,-0.57527 0.17639,-0.17639 0.32859,-0.16102 0.4566,0.0461 0.10561,0.17088 0.0729,0.42976 -0.0726,0.57528 -0.17639,0.17639 -0.32859,0.16102 -0.4566,-0.0461 z m -1.18542,-1.58428 c -0.32846,-0.203 -0.31634,-0.26655 0.0798,-0.41855 0.55205,-0.21184 0.91252,0.0528 0.55663,0.40872 -0.15029,0.15029 -0.40282,0.15419 -0.6364,0.01 z m -1.46041,-1.06155 c -0.10561,-0.17088 -0.073,-0.42975 0.0726,-0.57528 0.17639,-0.17639 0.32859,-0.16102 0.45661,0.0461 0.1056,0.17088 0.0729,0.42975 -0.0726,0.57527 -0.17639,0.17639 -0.32859,0.16102 -0.4566,-0.0461 z m -2.24896,-0.92308 c 0,-0.25348 0.2253,-0.37526 0.63195,-0.34161 0.3948,0.0327 0.58275,0.18049 0.50086,0.39391 -0.18199,0.47424 -1.13281,0.43034 -1.13281,-0.0523 z m -5.92472,-35.278882 c -0.19921,-0.32232 3.3287,-4.927504 6.30163,-8.22589 2.62516,-2.912541 6.69804,-6.720908 10.07413,-9.419879 2.0337,-1.625812 8.24162,-5.88658 9.56776,-6.56678 0.63222,-0.324272 0.80238,-0.559588 0.69675,-0.963523 -0.12532,-0.479234 -0.0135,-0.534465 1.08172,-0.534465 0.67181,0 1.22148,0.05273 1.22148,0.117168 0,0.06444 -0.24989,0.540692 -0.5553,1.058333 -0.57774,0.979189 -0.91244,1.168167 -1.09562,0.618612 -0.1396,-0.418793 -2.79425,1.155526 -6.95236,4.123042 -7.25685,5.178982 -13.63635,11.383152 -18.4691,17.961489 -1.5525,2.113267 -1.64265,2.201527 -1.87109,1.831893 z m 119.7617,-0.658341 c -1.05446,-0.515938 -1.45938,-0.975114 -0.8599,-0.975114 0.73259,0 0.0979,-0.989251 -3.14063,-4.894792 -3.66957,-4.425412 -7.57479,-8.086507 -12.33749,-11.566226 -4.639,-3.389343 -10.90467,-6.835337 -15.60981,-8.585091 -1.09174,-0.405998 -1.98498,-0.884556 -1.98498,-1.063464 0,-0.378602 0.65132,-0.175948 4.32227,1.344846 10.75606,4.455985 21.17019,12.668171 28.477,22.455867 0.82481,1.104855 1.26655,1.487559 1.59626,1.382913 0.37319,-0.118443 0.48668,0.08019 0.62582,1.095323 0.0935,0.682003 0.1398,1.266092 0.10295,1.297971 -0.0369,0.03188 -0.57303,-0.189624 -1.19149,-0.492233 z m -82.88073,-3.356364 c 0,-0.52424 0.17639,-0.529167 18.94857,-0.529167 h 18.94856 l -0.15164,-0.595312 c -0.0834,-0.327422 -1.19771,-4.364294 -2.47623,-8.970824 -2.14695,-7.735481 -2.36196,-8.355514 -2.81359,-8.113806 -0.26895,0.143938 -0.80565,0.783765 -1.19265,1.421837 -0.387,0.638072 -0.78179,1.163894 -0.87731,1.168493 -0.42849,0.02063 0.20421,-1.174266 1.22568,-2.314788 l 1.11838,-1.248724 -2.26285,-8.135937 c -1.24457,-4.474765 -2.35922,-8.135937 -2.47701,-8.135937 -0.17276,0 -14.2685,10.86354 -15.13696,11.666002 -0.31447,0.290573 1.85764,1.285056 2.82361,1.29277 0.40018,0.0032 0.72761,0.140091 0.72761,0.30421 0,0.423514 -1.91563,0.0795 -3.19675,-0.574078 l -1.03153,-0.526244 -6.15409,4.805152 c -3.38475,2.642834 -6.30797,4.925626 -6.49603,5.072873 -0.20416,0.159845 -0.43373,0.170959 -0.56973,0.02758 -0.13236,-0.139542 2.47704,-2.345031 6.22892,-5.264731 3.55119,-2.763525 6.45671,-5.107983 6.45671,-5.209906 0,-0.101923 -0.13256,-0.267238 -0.29457,-0.367366 -0.16201,-0.100128 -0.52477,-0.702467 -0.80613,-1.338532 -0.28136,-0.636064 -0.68701,-1.15648 -0.90144,-1.15648 -0.31397,0 -0.2774,-0.218905 0.18784,-1.124479 l 0.57772,-1.124479 0.47333,1.058333 c 0.40087,0.896311 0.41452,1.07143 0.0891,1.143879 -0.21132,0.04705 -0.38422,0.141091 -0.38422,0.208978 0,0.278784 1.06984,2.194897 1.30751,2.341783 0.1412,0.08727 3.84427,-2.643092 8.22905,-6.067465 4.38478,-3.424373 8.05119,-6.22431 8.14757,-6.222081 0.55416,0.01281 0.93636,1.072737 2.81298,7.801156 1.13644,4.074583 2.17696,7.804862 2.31226,8.289509 0.18817,0.673994 0.35057,0.840651 0.69072,0.708816 0.24459,-0.0948 1.00459,-0.239351 1.68889,-0.321227 0.83855,-0.100333 1.27028,-0.284392 1.32423,-0.564569 0.0627,-0.325378 0.27582,-0.24079 0.98101,0.389298 l 0.90096,0.805001 -1.10072,0.27939 c -0.97566,0.247649 -1.10071,0.227234 -1.10071,-0.179698 0,-0.395215 -0.16745,-0.433675 -1.20355,-0.276433 -0.66196,0.10046 -1.32703,0.306122 -1.47794,0.457025 -0.18943,0.189439 0.51074,3.073916 2.2619,9.318215 1.39494,4.974117 2.53626,9.095359 2.53626,9.158322 0,0.06296 1.54781,0.114474 3.43958,0.114474 3.2632,0 3.43959,0.02714 3.43959,0.529167 0,0.525089 -0.17639,0.529167 -22.88646,0.529167 -22.71007,0 -22.88646,-0.0041 -22.88646,-0.529167 z"
         id="path29"
         inkscape:connector-curvature="0" />
      <path
         style="fill:#636363;stroke-width:0.26458332"
         d="m 241.01651,188.76651 c 0,-0.50166 0.17639,-0.52917 3.39259,-0.52917 h 3.3926 l 1.11552,-4.0349 c 3.98352,-14.4085 4.34137,-15.56943 4.77179,-15.48049 0.55075,0.11381 0.65289,-0.34169 -2.24655,10.01879 -1.36865,4.89057 -2.48845,9.02799 -2.48845,9.19427 0,0.2239 4.90773,0.30233 18.91771,0.30233 18.74132,0 18.91771,0.005 18.91771,0.52917 0,0.52508 -0.17639,0.52916 -22.88646,0.52916 -22.71007,0 -22.88646,-0.004 -22.88646,-0.52916 z m 85.98958,-0.52677 c 0,-0.51817 0.21985,-0.52788 13.48335,-0.59531 l 13.48335,-0.0685 -4.88439,-8.20172 c -2.68641,-4.51095 -4.88439,-8.27845 -4.88439,-8.37221 0,-0.0938 0.17021,-0.23581 0.37825,-0.31564 0.27137,-0.10414 1.82221,2.2803 5.48831,8.43835 l 5.11005,8.58351 h 8.7992 c 8.6228,0 8.79919,0.0106 8.79919,0.52917 0,0.52509 -0.17639,0.52917 -22.88646,0.52917 -22.67527,0 -22.88646,-0.005 -22.88646,-0.52677 z m -16.93333,-6.63699 c -2.38506,-0.26509 -8.26174,-1.2777 -8.4405,-1.45438 -0.0584,-0.0577 -0.23769,0.075 -0.39846,0.29489 -0.25208,0.34473 -0.41965,0.29306 -1.21679,-0.37517 -0.50845,-0.42623 -0.86046,-0.84066 -0.78223,-0.92095 0.0782,-0.0803 0.64377,-0.22619 1.25677,-0.32421 0.90964,-0.14546 1.11454,-0.10232 1.11454,0.23464 0,0.49037 0.21279,0.5608 3.30729,1.0946 7.94527,1.37055 17.78296,1.2696 25.03991,-0.25694 1.83869,-0.38678 2.438,-0.35303 1.92996,0.10869 -0.26209,0.23819 -2.17461,0.63695 -6.06778,1.26515 -2.90865,0.46933 -12.66222,0.67607 -15.74271,0.33368 z m -28.71591,-10.69067 c -3.48776,-2.71784 -6.38107,-5.05119 -6.42958,-5.18522 -0.25902,-0.71572 1.06855,0.18417 6.52072,4.42003 7.03697,5.4671 6.48599,4.99949 6.35477,5.39315 -0.0579,0.17359 -2.93539,-1.89238 -6.44591,-4.62796 z m 58.29141,-7.34714 c -2.28019,-3.81992 -4.22251,-7.14784 -4.31628,-7.39538 -0.23106,-0.61001 7.7591,-18.20305 8.2672,-18.20305 0.20431,0 0.31838,0.0893 0.25349,0.19844 -0.0649,0.10914 -1.86438,4.04865 -3.99886,8.75447 l -3.88088,8.55604 2.52117,4.27625 c 1.38664,2.35194 3.34677,5.6452 4.35584,7.31836 1.68378,2.7919 1.87949,3.41289 1.08295,3.43614 -0.0763,0.002 -2.00444,-3.12134 -4.28463,-6.94127 z m -86.03605,4.60935 c -0.084,-0.13598 0.79801,-3.65261 1.96012,-7.81474 1.16211,-4.16213 2.11293,-7.6163 2.11293,-7.67593 0,-0.0596 0.18142,-0.17803 0.40317,-0.26312 0.46843,-0.17976 16.34244,12.06325 16.48945,12.71767 0.12963,0.57706 0.25537,0.66791 -8.2392,-5.9528 -4.19015,-3.26582 -7.66628,-5.89003 -7.72473,-5.83158 -0.0584,0.0584 -1.03606,3.42683 -2.17246,7.48528 -1.88854,6.74461 -2.39031,8.04549 -2.82928,7.33522 z m 112.6943,-7.91664 c 0.20975,-0.69122 0.38264,-1.30111 0.38422,-1.35531 0.002,-0.0542 0.16822,0.0387 0.37032,0.20642 0.4583,0.38035 2.33847,-1.62107 5.64312,-6.00707 5.72032,-7.59209 10.28336,-16.46317 12.78592,-24.8573 0.38659,-1.29669 0.79175,-2.18202 0.99894,-2.18281 0.21011,-7.9e-4 0.29191,0.18259 0.20594,0.4617 -0.0784,0.25466 -0.39701,1.29646 -0.70793,2.3151 -2.96937,9.72842 -8.40494,19.56218 -15.5524,28.13667 -1.90431,2.28451 -2.41492,3.05492 -2.1381,3.226 0.26255,0.16227 0.0106,0.37608 -0.90616,0.76907 -0.69841,0.29937 -1.31379,0.5443 -1.36752,0.5443 -0.0537,0 0.0739,-0.56554 0.28365,-1.25677 z M 255.50956,147.16078 c -5.02933,-7.51087 -8.73528,-16.75524 -10.03931,-25.04275 -0.29946,-1.90315 -0.3924,-2.12426 -0.834,-1.9841 -0.53697,0.17043 -0.50209,-0.12643 0.21537,-1.83275 l 0.32872,-0.7818 0.69621,1.02457 c 0.79988,1.17713 0.85297,1.43089 0.29933,1.43089 -0.48633,0 -0.50109,-0.30902 0.14787,3.09543 0.62676,3.28801 1.69205,7.12965 2.9076,10.4854 1.15661,3.193 4.36727,9.5675 6.35279,12.61292 1.80339,2.76606 2.01464,3.175 1.6401,3.175 -0.13918,0 -0.91079,-0.98226 -1.71468,-2.18281 z m 88.21982,-10.15104 c 0.31129,-1.15126 6.94456,-15.4474 7.16743,-15.4474 0.13406,0 0.1746,0.26789 0.0901,0.59532 -0.31285,1.21228 -6.78862,15.1493 -7.08495,15.24807 -0.18868,0.0629 -0.25532,-0.09 -0.17258,-0.39599 z m -75.05098,-21.57813 -1.0454,-0.55109 1.17769,-0.6038 c 1.12339,-0.57595 1.18154,-0.58087 1.26119,-0.10667 0.0754,0.4492 0.39427,0.50513 3.3073,0.58021 l 3.22379,0.0831 -3.24115,0.0572 c -3.04569,0.0538 -3.24114,0.0891 -3.24114,0.58638 0,0.65117 -0.12876,0.64712 -1.44228,-0.0453 z m -8.83413,-1.19305 c -0.0303,-0.60308 -0.18546,-0.86545 -0.54747,-0.92604 -0.48807,-0.0817 -0.48552,-0.12278 0.0756,-1.21711 l 0.58077,-1.13256 0.58237,1.19871 c 0.56231,1.1574 0.56484,1.1987 0.0734,1.1987 -0.37593,0 -0.53685,0.22475 -0.61567,0.8599 l -0.10672,0.85989 z m 2.64583,0 c -0.0303,-0.60308 -0.18546,-0.86545 -0.54746,-0.92604 -0.48808,-0.0817 -0.48552,-0.12278 0.0756,-1.21711 l 0.58077,-1.13256 0.58237,1.19871 c 0.56231,1.1574 0.56484,1.1987 0.0734,1.1987 -0.37593,0 -0.53685,0.22475 -0.61567,0.8599 l -0.10671,0.85989 z m 98.11808,-0.8783 c 0,-0.52434 0.17639,-0.52917 19.31458,-0.52917 18.21958,0 19.31441,-0.0262 19.31161,-0.46302 -0.002,-0.25466 -0.23842,-4.21349 -0.52619,-8.79739 -0.28777,-4.583909 -0.52456,-8.423674 -0.5262,-8.532815 -0.002,-0.10914 0.23516,-0.198437 0.5262,-0.198437 0.40102,0 0.52903,0.176202 0.5286,0.727604 -7.9e-4,1.200925 0.78498,14.377938 0.94681,15.874998 l 0.15016,1.38906 h 3.02367 c 2.84728,0 3.02367,0.0309 3.02367,0.52917 0,0.52509 -0.17639,0.52917 -22.88645,0.52917 -22.71007,0 -22.88646,-0.004 -22.88646,-0.52917 z m -137.31875,-3.16753 c 0,-0.49028 0.21859,-0.52614 3.62878,-0.59532 l 3.62878,-0.0736 3.06357,-6.7287 c 1.68497,-3.700783 3.20717,-6.776564 3.38268,-6.835069 0.17551,-0.0585 0.3191,-0.03239 0.3191,0.05803 0,0.09041 -1.36379,3.166194 -3.03064,6.835059 l -3.03065,6.67068 7.39627,0.0703 c 4.06795,0.0387 10.71779,0.0387 14.77742,0 l 7.38114,-0.0703 -3.94285,-8.71483 c -2.88748,-6.382137 -3.85458,-8.769393 -3.61305,-8.918668 0.1814,-0.11211 0.41182,-0.119497 0.51205,-0.01641 0.10023,0.103082 1.39083,2.866327 2.868,6.140545 1.47717,3.274223 3.2619,7.203283 3.96607,8.731253 l 1.28031,2.77812 3.59296,0.0736 c 3.37455,0.0691 3.59297,0.10532 3.59297,0.59531 0,0.51519 -0.28557,0.5217 -22.88646,0.5217 -22.60088,0 -22.88645,-0.007 -22.88645,-0.5217 z m 13.75345,-14.735942 c -0.003,-0.121266 1.97458,-4.583628 4.39392,-9.916358 3.19042,-7.032357 4.51007,-9.679542 4.80386,-9.636423 0.2538,0.03725 1.67598,2.863307 3.80817,7.567294 1.8717,4.129313 3.4031,7.589761 3.4031,7.689884 0,0.100124 -0.16722,0.246214 -0.3716,0.324639 -0.27158,0.104216 -1.13671,-1.543884 -3.21423,-6.123255 -1.56345,-3.446216 -3.0752,-6.731277 -3.35943,-7.300134 l -0.51679,-1.034285 -4.17879,9.227142 c -3.61696,7.98654 -4.74685,10.166955 -4.76821,9.201496 z m 161.03528,-2.667881 c -0.0841,-0.836745 -0.349,-4.974166 -0.58878,-9.19427 l -0.43596,-7.672916 -4.83799,-9.918483 c -4.17559,-8.560466 -5.27147,-11.116968 -4.34956,-10.146757 0.11575,0.12182 2.33298,4.567272 4.92716,9.878782 2.59419,5.31151 4.82959,9.737341 4.96756,9.835181 0.24204,0.171633 1.17064,13.307342 1.19851,16.95388 0.0104,1.362009 -0.0744,1.785937 -0.35724,1.785937 -0.25742,0 -0.41765,-0.465463 -0.5237,-1.521354 z M 255.72929,69.749968 c -0.19921,-0.32232 3.3287,-4.927504 6.30163,-8.22589 2.62516,-2.912541 6.69804,-6.720908 10.07413,-9.419879 2.0337,-1.625812 8.24162,-5.88658 9.56776,-6.56678 0.63222,-0.324272 0.80238,-0.559588 0.69675,-0.963523 -0.12532,-0.479234 -0.0135,-0.534465 1.08172,-0.534465 0.67181,0 1.22148,0.05273 1.22148,0.117168 0,0.06444 -0.24989,0.540692 -0.5553,1.058333 -0.57774,0.979189 -0.91244,1.168167 -1.09562,0.618612 -0.1396,-0.418793 -2.79425,1.155526 -6.95236,4.123042 -7.25685,5.178982 -13.63635,11.383152 -18.4691,17.961489 -1.5525,2.113267 -1.64265,2.201527 -1.87109,1.831893 z m 119.7617,-0.658341 c -1.05446,-0.515938 -1.45938,-0.975114 -0.8599,-0.975114 0.73259,0 0.0979,-0.989251 -3.14063,-4.894792 -3.66957,-4.425412 -7.57479,-8.086507 -12.33749,-11.566226 -4.639,-3.389343 -10.90467,-6.835337 -15.60981,-8.585091 -1.09174,-0.405998 -1.98498,-0.884556 -1.98498,-1.063464 0,-0.378602 0.65132,-0.175948 4.32227,1.344846 10.75606,4.455985 21.17019,12.668171 28.477,22.455867 0.82481,1.104855 1.26655,1.487559 1.59626,1.382913 0.37319,-0.118443 0.48668,0.08019 0.62582,1.095323 0.0935,0.682003 0.1398,1.266092 0.10295,1.297971 -0.0369,0.03188 -0.57303,-0.189624 -1.19149,-0.492233 z m -82.88073,-3.356364 c 0,-0.52424 0.17639,-0.529167 18.94639,-0.529167 h 18.94639 l -0.18021,-0.727604 c -0.0991,-0.400182 -1.18359,-4.323087 -2.40993,-8.71757 -1.22635,-4.39448 -2.22972,-8.161976 -2.22972,-8.372212 0,-0.210236 0.16005,-0.443664 0.35566,-0.518729 0.25596,-0.09822 0.54573,0.542847 1.03365,2.286796 0.37289,1.332803 1.53744,5.489138 2.58789,9.236299 l 1.90992,6.81302 h 3.40644 c 3.23005,0 3.40644,0.0274 3.40644,0.529167 0,0.525089 -0.17639,0.529167 -22.88646,0.529167 -22.71007,0 -22.88646,-0.0041 -22.88646,-0.529167 z m 91.2609,-16.799172 c -1.73506,-3.564232 -3.15465,-6.600326 -3.15465,-6.746874 0,-0.922558 0.80628,0.477409 3.66212,6.358672 1.76937,3.643818 3.21705,6.679911 3.21705,6.746874 0,0.06696 -0.12823,0.121751 -0.28494,0.121751 -0.15672,0 -1.70453,-2.916191 -3.43958,-6.480423 z m -92.40493,3.371569 c -0.12069,-0.204824 12.59613,-10.230449 12.88712,-10.159881 0.0897,0.02176 0.18574,0.127958 0.21333,0.23599 0.0525,0.205394 -12.48186,10.114173 -12.8007,10.119356 -0.10055,0.0016 -0.23544,-0.08632 -0.29975,-0.195465 z m 33.87012,-5.832389 c -0.0546,-0.102785 -1.09446,-3.788522 -2.3109,-8.190527 -1.21645,-4.402005 -2.30795,-8.003646 -2.42557,-8.003646 -0.11763,0 -3.51261,2.577728 -7.54441,5.728284 -6.48145,5.064781 -8.76858,6.662496 -8.1845,5.717434 0.22305,-0.360903 15.38976,-12.207717 15.84058,-12.373183 0.18778,-0.06892 0.46962,-0.03726 0.62631,0.07035 0.2224,0.152738 4.87448,16.178741 4.87448,16.792148 0,0.237549 -0.76702,0.464454 -0.87599,0.25914 z"
         id="path27"
         inkscape:connector-curvature="0" />
      <path
         style="fill:#355e8f;stroke-width:0.26458332"
         d="m 241.01651,188.76651 c 0,-0.50188 0.17639,-0.52917 3.41968,-0.52917 h 3.41968 l 0.36182,-1.25677 c 0.19899,-0.69123 1.42834,-5.09591 2.73188,-9.78818 1.49373,-5.37692 2.49235,-8.53194 2.70079,-8.53282 0.18191,-7.9e-4 0.33118,0.14743 0.33173,0.32933 0.001,0.31048 -4.89899,18.075 -5.20683,18.87723 -0.12143,0.31644 2.67233,0.37121 18.93586,0.37121 18.90192,0 19.07831,0.005 19.07831,0.52917 0,0.52508 -0.17639,0.52916 -22.88646,0.52916 -22.71007,0 -22.88646,-0.004 -22.88646,-0.52916 z m 85.98958,-0.52917 c 0,-0.52225 0.17639,-0.52917 13.49375,-0.52917 7.42157,0 13.49375,-0.0646 13.49375,-0.14365 0,-0.079 -2.21622,-3.84383 -4.92493,-8.36628 -3.6784,-6.14142 -4.83699,-8.27697 -4.57748,-8.43736 0.25543,-0.15787 1.70971,2.05803 5.49071,8.36628 l 5.14325,8.58101 h 8.82694 c 8.65054,0 8.82693,0.0106 8.82693,0.52917 0,0.52509 -0.17639,0.52917 -22.88646,0.52917 -22.71007,0 -22.88646,-0.004 -22.88646,-0.52917 z m -15.13756,-6.6233 c -2.70584,-0.19466 -8.76542,-1.08005 -10.04436,-1.46762 -0.24386,-0.0739 -0.54152,0.0377 -0.66146,0.24806 -0.17822,0.31252 -0.38089,0.24594 -1.10897,-0.36429 l -0.8909,-0.74669 1.02319,-0.28411 c 1.3451,-0.37348 1.5051,-0.36111 1.32715,0.10261 -0.17501,0.45607 0.61985,0.70406 4.19395,1.30847 4.00574,0.67741 9.557,1.02768 13.5017,0.85192 3.57781,-0.15941 8.51901,-0.73138 10.4431,-1.20885 2.01411,-0.49981 2.38125,-0.54829 2.38125,-0.31447 0,0.13369 -0.86321,0.43384 -1.91823,0.66702 -4.91795,1.08691 -12.73528,1.60443 -18.24642,1.20795 z m -30.264,-10.59228 c -5.90041,-4.59748 -7.2547,-5.75081 -6.40986,-5.45878 0.48526,0.16774 12.28317,9.32528 12.53134,9.72683 0.46513,0.7526 -0.89541,-0.196 -6.12148,-4.26805 z m 62.12044,-0.85796 c -0.13924,-0.17325 -2.12333,-3.45256 -4.40911,-7.28734 l -4.15595,-6.97234 4.05903,-8.96839 c 2.23246,-4.93262 4.19286,-8.96858 4.35643,-8.96881 0.16356,-2.3e-4 -1.47355,3.88221 -3.63803,8.62763 -2.16448,4.74543 -3.93541,8.74539 -3.93541,8.8888 0,0.1434 1.95429,3.51479 4.34286,7.49196 3.03482,5.05322 4.23601,7.27222 3.9881,7.36735 -0.19513,0.0749 -0.46869,-0.006 -0.60792,-0.17886 z m -90.09646,-1.96865 c -0.18462,-0.30729 4.05672,-15.18515 4.4375,-15.56594 0.27297,-0.27296 1.7899,0.79432 7.98178,5.61582 7.8587,6.11942 8.76344,6.86912 8.54873,7.08383 -0.0687,0.0687 -3.69076,-2.65924 -8.04895,-6.06216 -4.3582,-3.40291 -7.95591,-6.1552 -7.99492,-6.1162 -0.039,0.039 -0.84842,2.85958 -1.79871,6.26795 -0.95029,3.40835 -1.90673,6.82209 -2.12542,7.58608 -0.36715,1.2826 -0.70387,1.6835 -1.00001,1.19062 z m 112.62511,-7.36831 c 0.0826,-0.27667 0.22916,-0.83366 0.32559,-1.23776 0.14764,-0.61872 0.2383,-0.68244 0.57426,-0.40362 0.44733,0.37125 0.56352,0.25389 4.3047,-4.34788 5.8263,-7.16653 11.29916,-17.39638 13.97836,-26.12828 0.42071,-1.37114 0.89268,-2.53557 1.04883,-2.58762 0.45343,-0.15114 -1.40902,5.57851 -3.24914,9.99566 -3.17971,7.63281 -9.09998,16.94217 -14.24004,22.39184 -0.75485,0.80031 -0.98843,1.23793 -0.86623,1.62293 0.12928,0.40733 0.0207,0.56393 -0.47765,0.68902 -0.35473,0.089 -0.84836,0.23992 -1.09695,0.33532 -0.35262,0.13531 -0.41896,0.0628 -0.30173,-0.32961 z M 255.66759,147.28439 c -5.187,-7.8093 -8.41848,-15.78581 -10.01869,-24.72986 -0.32134,-1.79604 -0.57261,-2.57969 -0.82717,-2.57969 -0.2011,0 -0.36564,-0.10129 -0.36564,-0.2251 0,-0.43216 0.58234,-1.89154 0.75349,-1.88829 0.0949,0.002 0.44154,0.41852 0.7703,0.92604 0.47616,0.73508 0.51653,0.92277 0.19844,0.92277 -0.55811,0 -0.51074,0.78674 0.27003,4.48465 1.69753,8.03995 5.09062,16.07222 9.69647,22.95392 0.70172,1.04845 1.27586,1.97119 1.27586,2.05052 0,0.49101 -0.56484,-0.12598 -1.75309,-1.91496 z m 88.00725,-10.02173 c 0,-0.16522 6.87939,-15.4445 7.05904,-15.67827 0.0466,-0.0606 0.16152,-0.0334 0.25539,0.0604 0.20664,0.20665 -6.80391,15.79252 -7.10351,15.79252 -0.116,0 -0.21092,-0.0786 -0.21092,-0.17468 z m -74.81901,-21.88542 -1.13256,-0.58077 1.1987,-0.58237 c 1.16768,-0.56731 1.19871,-0.56898 1.19871,-0.0648 0,0.48102 0.22892,0.52346 3.24114,0.60081 l 3.24115,0.0832 -3.22275,0.0572 c -2.94169,0.0522 -3.23011,0.10126 -3.30729,0.56233 -0.0817,0.48808 -0.12277,0.48552 -1.2171,-0.0756 z m -9.01156,-1.15708 c -0.0331,-0.67242 -0.15889,-0.8599 -0.57689,-0.8599 h -0.53454 l 0.53992,-1.05833 c 0.29696,-0.58209 0.59461,-1.05834 0.66146,-1.05834 0.0668,0 0.3645,0.47625 0.66146,1.05834 0.53211,1.04303 0.53243,1.05833 0.0221,1.05833 -0.38588,0 -0.54496,0.21905 -0.62449,0.8599 l -0.10671,0.85989 -0.0423,-0.85989 z m 2.64583,0 c -0.0331,-0.67242 -0.15888,-0.8599 -0.57688,-0.8599 h -0.53455 l 0.53992,-1.05833 c 0.29696,-0.58209 0.59462,-1.05834 0.66146,-1.05834 0.0668,0 0.3645,0.47625 0.66146,1.05834 0.53212,1.04303 0.53244,1.05833 0.0222,1.05833 -0.38589,0 -0.54497,0.21905 -0.6245,0.8599 l -0.10671,0.85989 -0.0423,-0.85989 z m 98.11808,-0.8599 c 0,-0.52434 0.17639,-0.52917 19.31458,-0.52917 h 19.31458 v -1.16168 c 0,-1.05881 -0.65396,-12.578462 -0.88408,-15.573211 -0.0707,-0.919562 -0.002,-1.256771 0.25642,-1.256771 0.19415,0 0.4069,0.267891 0.47279,0.595312 0.12114,0.602046 0.96367,15.32451 0.95391,16.66875 l -0.005,0.7276 h 3.175 c 2.99861,0 3.175,0.0294 3.175,0.52917 0,0.52509 -0.17639,0.52917 -22.88645,0.52917 -22.71007,0 -22.88646,-0.004 -22.88646,-0.52917 z m -137.31875,-3.175 c 0,-0.50354 0.17639,-0.52917 3.64169,-0.52917 h 3.6417 l 3.01584,-6.68073 c 1.65872,-3.674396 3.1136,-6.791849 3.23307,-6.927667 0.76422,-0.868821 0.1244,0.80637 -2.55589,6.691857 -1.6714,3.67014 -3.03891,6.72778 -3.03891,6.79476 0,0.067 6.6675,0.12178 14.81666,0.12178 8.14917,0 14.81667,-0.041 14.81667,-0.0911 0,-0.0501 -1.77339,-4.00893 -3.94087,-8.7974 -2.6584,-5.873014 -3.84304,-8.767299 -3.64024,-8.893727 0.16536,-0.103082 0.3718,-0.103082 0.45876,0 0.087,0.103081 1.93343,4.141597 4.10326,8.974477 l 3.94513,8.78706 3.63802,0.0103 c 3.45819,0.01 3.63802,0.0365 3.63802,0.53951 0,0.52509 -0.17639,0.52916 -22.88646,0.52916 -22.71006,0 -22.88645,-0.004 -22.88645,-0.52916 z m 13.75833,-14.69547 c 0,-0.495581 8.75964,-19.29834 9.07194,-19.47311 0.30699,-0.1718 1.07625,1.31197 3.76024,7.252861 1.85586,4.107865 3.42562,7.602309 3.48835,7.765433 0.0627,0.163121 -0.0503,0.359643 -0.25111,0.43671 -0.26391,0.101272 -1.27481,-1.870008 -3.64591,-7.109607 -1.80441,-3.987353 -3.3521,-7.249731 -3.4393,-7.249731 -0.0872,0 -2.0448,4.167187 -4.35023,9.260416 -3.55638,7.85686 -4.63398,9.97696 -4.63398,9.117028 z m 161.13125,-1.810756 c 0,-0.347173 -0.24024,-4.503787 -0.53386,-9.236918 l -0.53386,-8.605692 -4.87312,-9.940252 c -2.68021,-5.467138 -4.7653,-10.006885 -4.63352,-10.088329 0.13178,-0.08144 0.40879,0.243673 0.61559,0.722484 0.20679,0.478809 2.4797,5.141479 5.05089,10.361491 l 4.67491,9.490929 0.51059,8.236153 c 0.62103,10.01778 0.61702,9.691361 0.11925,9.691361 -0.24187,0 -0.39687,-0.246525 -0.39687,-0.631227 z M 255.76705,69.814278 c -0.0897,-0.08973 0.50595,-1.073978 1.32372,-2.187223 5.82016,-7.923096 13.76462,-15.180519 23.08667,-21.090141 1.40575,-0.891157 2.35111,-1.658459 2.27802,-1.848943 -0.0755,-0.196851 0.1943,-0.38946 0.68237,-0.487075 1.55125,-0.31025 1.61871,-0.250293 0.9857,0.876006 -0.47868,0.851694 -0.66161,0.98844 -1.02154,0.763656 -0.5085,-0.317563 -2.60881,0.852284 -6.43371,3.583509 -7.38523,5.273523 -13.61062,11.198695 -18.38113,17.49468 -2.47293,3.263701 -2.32355,3.092077 -2.5201,2.895531 z m 119.72394,-0.836647 c -0.88819,-0.442037 -1.05075,-0.711938 -0.5975,-0.992058 0.55357,-0.342127 -4.75247,-6.763638 -8.65127,-10.46999 -6.38921,-6.073824 -14.09364,-11.080984 -21.77363,-14.150816 -1.38244,-0.55259 -2.62665,-1.1031 -2.76489,-1.223356 -0.97692,-0.849798 3.88513,1.007679 7.92427,3.02735 6.311,3.155666 12.0675,7.246588 17.55982,12.479092 1.80786,1.722334 6.48434,7.18471 7.61925,8.899673 0.53428,0.807344 0.77008,0.978238 1.04031,0.753964 0.27225,-0.225951 0.38459,-0.124134 0.50857,0.460944 0.41437,1.955498 0.46883,1.878989 -0.86493,1.215197 z m -82.88073,-3.242368 c 0,-0.524232 0.17639,-0.529167 18.91771,-0.529167 14.639,0 18.91771,-0.07251 18.91771,-0.320601 0,-0.176328 -1.0906,-4.235428 -2.42355,-9.020219 -1.94873,-6.995206 -2.35321,-8.743098 -2.0645,-8.921529 0.28364,-0.1753 0.82079,1.427442 2.55751,7.631159 1.20915,4.319185 2.3538,8.448378 2.54367,9.175982 l 0.34521,1.322917 3.48958,0.07383 c 3.27109,0.0692 3.48958,0.106477 3.48958,0.595313 0,0.514905 -0.28874,0.521486 -22.88646,0.521486 -22.71007,0 -22.88646,-0.0041 -22.88646,-0.529167 z m 91.30819,-16.833028 c -1.76107,-3.582853 -3.20194,-6.569338 -3.20194,-6.636632 0,-0.06729 0.11729,-0.08266 0.26065,-0.03416 0.21405,0.07243 6.61852,12.726562 6.61852,13.077066 0,0.0594 -0.10694,0.108003 -0.23765,0.108003 -0.1307,0 -1.67851,-2.931426 -3.43958,-6.514279 z m -92.36652,3.401953 c 0,-0.366114 12.93251,-10.382789 13.08553,-10.135195 0.10901,0.176382 -12.19617,10.017984 -12.86958,10.293007 -0.11877,0.04851 -0.21595,-0.02251 -0.21595,-0.157812 z m 33.76459,-6.095446 c -0.071,-0.247236 -1.1027,-3.961863 -2.29259,-8.254727 -1.18989,-4.292865 -2.20177,-7.847167 -2.24863,-7.898451 -0.0469,-0.05128 -3.54716,2.607283 -7.77843,5.907925 -4.23128,3.300641 -7.82125,5.958494 -7.97772,5.906338 -0.15646,-0.05216 3.14036,-2.770253 7.32628,-6.040216 9.50482,-7.424991 8.55006,-6.752472 8.95572,-6.308294 0.18228,0.199599 1.32105,3.934781 2.53059,8.300406 1.20954,4.365625 2.24683,8.070964 2.30509,8.234086 0.0583,0.163123 -0.0734,0.365407 -0.29261,0.44952 -0.24006,0.09212 -0.4499,-0.02582 -0.5277,-0.296587 z"
         id="path25"
         inkscape:connector-curvature="0" />
      <path
         style="fill:#080808;stroke-width:0.26458332"
         d="m 247.99789,187.77432 c 0.0758,-0.25466 1.2947,-4.63021 2.70861,-9.72344 1.41391,-5.09323 2.61203,-9.31201 2.66249,-9.37507 0.0505,-0.0631 0.22126,0.0148 0.37954,0.17313 0.20732,0.20733 -0.31585,2.4586 -1.87125,8.05216 -3.13225,11.26429 -3.15519,11.33624 -3.61376,11.33624 -0.26042,0 -0.35461,-0.16419 -0.26563,-0.46302 z m 105.63914,-0.92604 c -1.68225,-2.71576 -9.43302,-15.79379 -9.43302,-15.91654 0,-0.0863 0.172,-0.1569 0.38222,-0.1569 0.31712,0 10.20111,15.99873 10.20111,16.51204 0,0.40483 -0.822,0.0914 -1.15031,-0.4386 z m -41.7685,-5.23424 c -2.70584,-0.19466 -8.76542,-1.08005 -10.04436,-1.46762 -0.24386,-0.0739 -0.54152,0.0377 -0.66146,0.24806 -0.17822,0.31252 -0.38089,0.24594 -1.10897,-0.36429 l -0.8909,-0.74669 1.02319,-0.28411 c 1.3451,-0.37348 1.5051,-0.36111 1.32715,0.10261 -0.17501,0.45607 0.61985,0.70406 4.19395,1.30847 4.00574,0.67741 9.557,1.02768 13.5017,0.85192 3.57781,-0.15941 8.51901,-0.73138 10.4431,-1.20885 2.01411,-0.49981 2.38125,-0.54829 2.38125,-0.31447 0,0.13369 -0.86321,0.43384 -1.91823,0.66702 -4.91795,1.08691 -12.73528,1.60443 -18.24642,1.20795 z m -30.59467,-10.85853 c -3.36935,-2.63 -6.1261,-4.89922 -6.1261,-5.04269 0,-0.14348 0.14883,-0.17003 0.33073,-0.059 0.68825,0.42012 12.1015,9.39972 12.24752,9.63599 0.46938,0.75947 -0.93072,-0.22446 -6.45215,-4.5343 z m 58.16476,-7.68284 -4.27947,-7.17301 4.02669,-8.90043 c 2.21468,-4.89524 4.07118,-8.95004 4.12555,-9.01067 0.0544,-0.0606 0.17459,-0.0345 0.26713,0.058 0.0925,0.0925 -1.57684,4.01168 -3.70974,8.7092 -2.13291,4.69751 -3.87551,8.64141 -3.87244,8.76421 0.003,0.1228 1.84953,3.294 4.10323,7.04711 4.54654,7.57138 4.60269,7.67857 4.02208,7.67857 -0.24654,0 -2.06872,-2.79104 -4.68303,-7.173 z m -85.8682,4.74483 c 0.0641,-0.19247 1.02753,-3.6142 2.14084,-7.60384 1.11331,-3.98965 2.1744,-7.4041 2.35798,-7.58768 0.26866,-0.26866 1.82543,0.82773 7.97855,5.61905 7.87898,6.13521 8.88941,6.97356 8.40494,6.97356 -0.1559,0 -3.784,-2.7342 -8.06245,-6.076 -4.602,-3.59453 -7.82927,-5.94477 -7.90212,-5.75468 -0.0677,0.17672 -1.02435,3.53516 -2.12584,7.4632 -1.55224,5.53551 -2.10457,7.16151 -2.45562,7.22912 -0.28126,0.0542 -0.40871,-0.0454 -0.33628,-0.26273 z m 112.6832,-6.99066 c 0.0826,-0.27667 0.22916,-0.83366 0.32559,-1.23776 0.14764,-0.61872 0.2383,-0.68244 0.57426,-0.40362 0.44733,0.37125 0.56352,0.25389 4.3047,-4.34788 5.8263,-7.16653 11.29916,-17.39638 13.97836,-26.12828 0.42071,-1.37114 0.89268,-2.53557 1.04883,-2.58762 0.45343,-0.15114 -1.40902,5.57851 -3.24914,9.99566 -3.17971,7.63281 -9.09998,16.94217 -14.24004,22.39184 -0.75485,0.80031 -0.98843,1.23793 -0.86623,1.62293 0.12928,0.40733 0.0207,0.56393 -0.47765,0.68902 -0.35473,0.089 -0.84836,0.23992 -1.09695,0.33532 -0.35262,0.13531 -0.41896,0.0628 -0.30173,-0.32961 z M 255.66759,147.28439 c -5.187,-7.8093 -8.41848,-15.78581 -10.01869,-24.72986 -0.32134,-1.79604 -0.57261,-2.57969 -0.82717,-2.57969 -0.2011,0 -0.36564,-0.10129 -0.36564,-0.2251 0,-0.43216 0.58234,-1.89154 0.75349,-1.88829 0.0949,0.002 0.44154,0.41852 0.7703,0.92604 0.47616,0.73508 0.51653,0.92277 0.19844,0.92277 -0.55811,0 -0.51074,0.78674 0.27003,4.48465 1.69753,8.03995 5.09062,16.07222 9.69647,22.95392 0.70172,1.04845 1.27586,1.97119 1.27586,2.05052 0,0.49101 -0.56484,-0.12598 -1.75309,-1.91496 z m 88.00725,-10.02173 c 0,-0.16522 6.87939,-15.4445 7.05904,-15.67827 0.0466,-0.0606 0.16152,-0.0334 0.25539,0.0604 0.20664,0.20665 -6.80391,15.79252 -7.10351,15.79252 -0.116,0 -0.21092,-0.0786 -0.21092,-0.17468 z m -74.81901,-21.88542 -1.13256,-0.58077 1.1987,-0.58237 c 1.16768,-0.56731 1.19871,-0.56898 1.19871,-0.0648 0,0.48102 0.22892,0.52346 3.24114,0.60081 l 3.24115,0.0832 -3.22275,0.0572 c -2.94169,0.0522 -3.23011,0.10126 -3.30729,0.56233 -0.0817,0.48808 -0.12277,0.48552 -1.2171,-0.0756 z m -9.01156,-1.15708 c -0.0331,-0.67242 -0.15889,-0.8599 -0.57689,-0.8599 h -0.53454 l 0.53992,-1.05833 c 0.29696,-0.58209 0.59461,-1.05834 0.66146,-1.05834 0.0668,0 0.3645,0.47625 0.66146,1.05834 0.53211,1.04303 0.53243,1.05833 0.0221,1.05833 -0.38588,0 -0.54496,0.21905 -0.62449,0.8599 l -0.10671,0.85989 -0.0423,-0.85989 z m 2.64583,0 c -0.0331,-0.67242 -0.15888,-0.8599 -0.57688,-0.8599 h -0.53455 l 0.53992,-1.05833 c 0.29696,-0.58209 0.59462,-1.05834 0.66146,-1.05834 0.0668,0 0.3645,0.47625 0.66146,1.05834 0.53212,1.04303 0.53244,1.05833 0.0222,1.05833 -0.38589,0 -0.54497,0.21905 -0.6245,0.8599 l -0.10671,0.85989 -0.0423,-0.85989 z m 136.38293,-9.78959 c -0.25314,-4.620283 -0.51512,-8.668408 -0.58218,-8.99583 -0.0833,-0.406966 0.004,-0.595312 0.27495,-0.595312 0.5544,0 0.58569,0.262641 1.05616,8.863542 0.50308,9.19726 0.50263,9.12812 0.0602,9.12812 -0.27183,0 -0.45058,-1.85576 -0.80916,-8.40052 z m -168.05613,4.7625 c 0.95278,-2.51014 5.90493,-13.01811 6.13769,-13.023584 0.16704,-0.0039 -1.07698,3.028952 -2.7645,6.739734 -1.68752,3.71078 -3.17638,6.74687 -3.30858,6.74687 -0.1322,0 -0.16128,-0.20836 -0.0646,-0.46302 z m 26.2467,-8.10608 c -2.13194,-4.713003 -3.87626,-8.701596 -3.87626,-8.863537 0,-0.161944 0.14883,-0.290939 0.33073,-0.28666 0.1819,0.0043 1.57167,2.772484 3.08838,6.151562 1.5167,3.379085 3.27287,7.248445 3.9026,8.598595 1.24535,2.67006 1.32472,2.96914 0.78788,2.96914 -0.21257,0 -1.92573,-3.46778 -4.23333,-8.5691 z m -19.81845,-5.613067 c -0.20429,-0.330542 8.39794,-19.19052 8.87468,-19.457315 0.30678,-0.171683 1.0683,1.29485 3.71734,7.158813 1.83234,4.056101 3.36549,7.536145 3.407,7.733431 0.0415,0.197284 -0.0859,0.358701 -0.28318,0.358701 -0.21294,0 -1.66182,-2.87555 -3.56614,-7.077604 -1.76412,-3.892682 -3.27765,-7.077603 -3.36341,-7.077603 -0.0857,0 -1.86281,3.780234 -3.94902,8.40052 -4.49762,9.960779 -4.64714,10.26869 -4.83727,9.961057 z m 160.93386,-1.794889 c 0,-0.347173 -0.24024,-4.503787 -0.53386,-9.236918 l -0.53386,-8.605692 -4.87312,-9.940252 c -2.68021,-5.467138 -4.7653,-10.006885 -4.63352,-10.088329 0.13178,-0.08144 0.40879,0.243673 0.61559,0.722484 0.20679,0.478809 2.4797,5.141479 5.05089,10.361491 l 4.67491,9.490929 0.51059,8.236153 c 0.62103,10.01778 0.61702,9.691361 0.11925,9.691361 -0.24187,0 -0.39687,-0.246525 -0.39687,-0.631227 z M 255.76705,69.814278 c -0.0897,-0.08973 0.50595,-1.073978 1.32372,-2.187223 5.82016,-7.923096 13.76462,-15.180519 23.08667,-21.090141 1.40575,-0.891157 2.35111,-1.658459 2.27802,-1.848943 -0.0755,-0.196851 0.1943,-0.38946 0.68237,-0.487075 1.55125,-0.31025 1.61871,-0.250293 0.9857,0.876006 -0.47868,0.851694 -0.66161,0.98844 -1.02154,0.763656 -0.5085,-0.317563 -2.60881,0.852284 -6.43371,3.583509 -7.38523,5.273523 -13.61062,11.198695 -18.38113,17.49468 -2.47293,3.263701 -2.32355,3.092077 -2.5201,2.895531 z m 119.72394,-0.836647 c -0.88819,-0.442037 -1.05075,-0.711938 -0.5975,-0.992058 0.55357,-0.342127 -4.75247,-6.763638 -8.65127,-10.46999 -6.38921,-6.073824 -14.09364,-11.080984 -21.77363,-14.150816 -1.38244,-0.55259 -2.62665,-1.1031 -2.76489,-1.223356 -0.97692,-0.849798 3.88513,1.007679 7.92427,3.02735 6.311,3.155666 12.0675,7.246588 17.55982,12.479092 1.80786,1.722334 6.48434,7.18471 7.61925,8.899673 0.53428,0.807344 0.77008,0.978238 1.04031,0.753964 0.27225,-0.225951 0.38459,-0.124134 0.50857,0.460944 0.41437,1.955498 0.46883,1.878989 -0.86493,1.215197 z M 328.10444,56.168187 c -1.66727,-5.987669 -2.35689,-8.859376 -2.17193,-9.044339 0.14906,-0.149058 0.31846,-0.219421 0.37645,-0.156362 0.14711,0.159979 4.93047,17.307597 4.93047,17.674992 0,0.164468 -0.15571,0.299035 -0.34602,0.299035 -0.2289,0 -1.17292,-2.969657 -2.78897,-8.773326 z m 55.81362,-7.266746 c -1.76085,-3.582417 -3.20155,-6.568544 -3.20155,-6.635838 0,-0.06729 0.11729,-0.08266 0.26065,-0.03416 0.39748,0.134492 6.62036,12.888119 6.36539,13.045697 -0.12262,0.07578 -1.66364,-2.793284 -3.42449,-6.375701 z m -92.36613,3.37767 c 0,-0.335896 12.71045,-10.1695 12.89983,-9.980121 0.089,0.08897 0.0506,0.262456 -0.0852,0.385527 -0.65946,0.597568 -12.57304,9.82158 -12.68538,9.82158 -0.0711,0 -0.12927,-0.102144 -0.12927,-0.226986 z m 33.74851,-6.167157 c -0.0651,-0.194002 -1.09077,-3.865075 -2.27918,-8.157939 -1.18842,-4.292865 -2.1991,-7.847167 -2.24596,-7.898451 -0.0469,-0.05128 -3.55217,2.611196 -7.78958,5.91662 -4.23741,3.305424 -7.77923,5.935008 -7.87071,5.84352 -0.21685,-0.216848 -0.75129,0.223699 7.73587,-6.376833 4.07459,-3.168833 7.56314,-5.883336 7.75235,-6.032228 0.2422,-0.190599 0.44541,-0.15999 0.68668,0.103434 0.26164,0.285678 4.61009,15.342297 4.75971,16.480656 0.0511,0.388911 -0.62269,0.497938 -0.74918,0.121221 z"
         id="path23"
         inkscape:connector-curvature="0" />
    </g>
    <flowRoot
       xml:space="preserve"
       id="flowRoot39"
       style="font-style:normal;font-weight:normal;font-size:40px;line-height:1.25;font-family:sans-serif;letter-spacing:0px;word-spacing:0px;fill:#000000;fill-opacity:1;stroke:none"
       transform="matrix(0.26458333,0,0,0.26458333,0,2.6458334)"><flowRegion
         id="flowRegion41"><rect
           id="rect43"
           width="162.45084"
           height="54.15028"
           x="238.49164"
           y="440.45667" /></flowRegion><flowPara
         id="flowPara45"
         style="font-style:normal;font-variant:normal;font-weight:normal;font-stretch:normal;font-size:32px;font-family:'Times New Roman';-inkscape-font-specification:'Times New Roman, '">Impact</flowPara></flowRoot>  </g>
</svg>
